<svg width="226" height="50" viewBox="0 0 226 50" fill="none" xmlns="http://www.w3.org/2000/svg">
<path d="M42.1151 37.448C41.0698 37.448 40.1418 37.224 39.3311 36.776C38.5418 36.3067 37.9231 35.6667 37.4751 34.856C37.0485 34.0453 36.8351 33.128 36.8351 32.104C36.8351 30.2053 37.6565 28.7333 39.2991 27.688C40.9418 26.6213 43.5551 25.896 47.1391 25.512C47.1178 24.9147 47.0111 24.392 46.8191 23.944C46.6271 23.4747 46.3071 23.1013 45.8591 22.824C45.4325 22.5467 44.8458 22.408 44.0991 22.408C43.2671 22.408 42.4458 22.568 41.6351 22.888C40.8245 23.208 40.0031 23.624 39.1711 24.136L37.5071 21C38.2111 20.552 38.9578 20.1573 39.7471 19.816C40.5365 19.4747 41.3685 19.1973 42.2431 18.984C43.1178 18.7493 44.0245 18.632 44.9631 18.632C46.4778 18.632 47.7471 18.9307 48.7711 19.528C49.7951 20.1253 50.5631 21.0107 51.0751 22.184C51.5871 23.3573 51.8431 24.808 51.8431 26.536V37H48.0031L47.6831 35.08H47.5231C46.7551 35.7627 45.9231 36.328 45.0271 36.776C44.1311 37.224 43.1605 37.448 42.1151 37.448ZM43.6831 33.768C44.3445 33.768 44.9418 33.6187 45.4751 33.32C46.0298 33 46.5845 32.5627 47.1391 32.008V28.424C45.6885 28.5947 44.5365 28.84 43.6831 29.16C42.8298 29.48 42.2218 29.864 41.8591 30.312C41.4965 30.7387 41.3151 31.2187 41.3151 31.752C41.3151 32.456 41.5285 32.968 41.9551 33.288C42.4031 33.608 42.9791 33.768 43.6831 33.768ZM57.4374 37V17.64C57.4374 16.4027 57.64 15.2827 58.0454 14.28C58.472 13.2773 59.1334 12.488 60.0294 11.912C60.9467 11.3147 62.152 11.016 63.6454 11.016C64.3707 11.016 65.0214 11.08 65.5974 11.208C66.1734 11.336 66.664 11.4747 67.0694 11.624L66.2054 15.144C65.608 14.8667 64.968 14.728 64.2854 14.728C63.6027 14.728 63.0694 14.952 62.6854 15.4C62.3014 15.848 62.1094 16.5627 62.1094 17.544V37H57.4374ZM55.0054 22.792V19.304L57.6934 19.08H65.5334V22.792H55.0054ZM75.8204 37.448C74.1564 37.448 72.6524 37.0747 71.3084 36.328C69.9644 35.5813 68.887 34.504 68.0764 33.096C67.287 31.688 66.8924 30.0027 66.8924 28.04C66.8924 26.5893 67.1164 25.288 67.5644 24.136C68.0337 22.984 68.663 22.0027 69.4524 21.192C70.263 20.36 71.159 19.7307 72.1404 19.304C73.143 18.856 74.1777 18.632 75.2444 18.632C76.887 18.632 78.263 19.0053 79.3724 19.752C80.4817 20.4773 81.3137 21.4907 81.8684 22.792C82.4444 24.072 82.7324 25.544 82.7324 27.208C82.7324 27.6347 82.711 28.0507 82.6684 28.456C82.6257 28.84 82.5724 29.1493 82.5084 29.384H71.4684C71.5964 30.344 71.8844 31.1547 72.3324 31.816C72.7804 32.4773 73.3564 32.9787 74.0604 33.32C74.7644 33.64 75.5644 33.8 76.4604 33.8C77.1857 33.8 77.8684 33.704 78.5084 33.512C79.1484 33.2987 79.799 32.9893 80.4604 32.584L82.0604 35.464C81.1857 36.0613 80.2044 36.5413 79.1164 36.904C78.0284 37.2667 76.9297 37.448 75.8204 37.448ZM71.3724 26.216H78.7004C78.7004 25.0213 78.423 24.072 77.8684 23.368C77.335 22.6427 76.4817 22.28 75.3084 22.28C74.6897 22.28 74.103 22.4293 73.5484 22.728C72.9937 23.0053 72.5244 23.4427 72.1404 24.04C71.7564 24.616 71.5004 25.3413 71.3724 26.216ZM119.99 37.448C118.945 37.448 118.017 37.224 117.206 36.776C116.417 36.3067 115.798 35.6667 115.35 34.856C114.923 34.0453 114.71 33.128 114.71 32.104C114.71 30.2053 115.531 28.7333 117.174 27.688C118.817 26.6213 121.43 25.896 125.014 25.512C124.993 24.9147 124.886 24.392 124.694 23.944C124.502 23.4747 124.182 23.1013 123.734 22.824C123.307 22.5467 122.721 22.408 121.974 22.408C121.142 22.408 120.321 22.568 119.51 22.888C118.699 23.208 117.878 23.624 117.046 24.136L115.382 21C116.086 20.552 116.833 20.1573 117.622 19.816C118.411 19.4747 119.243 19.1973 120.118 18.984C120.993 18.7493 121.899 18.632 122.838 18.632C124.353 18.632 125.622 18.9307 126.646 19.528C127.67 20.1253 128.438 21.0107 128.95 22.184C129.462 23.3573 129.718 24.808 129.718 26.536V37H125.878L125.558 35.08H125.398C124.63 35.7627 123.798 36.328 122.902 36.776C122.006 37.224 121.035 37.448 119.99 37.448ZM121.558 33.768C122.219 33.768 122.817 33.6187 123.35 33.32C123.905 33 124.459 32.5627 125.014 32.008V28.424C123.563 28.5947 122.411 28.84 121.558 29.16C120.705 29.48 120.097 29.864 119.734 30.312C119.371 30.7387 119.19 31.2187 119.19 31.752C119.19 32.456 119.403 32.968 119.83 33.288C120.278 33.608 120.854 33.768 121.558 33.768ZM140.291 37.448C138.883 37.448 137.742 37.1707 136.867 36.616C135.992 36.04 135.363 35.2507 134.979 34.248C134.595 33.2453 134.403 32.0827 134.403 30.76V22.792H131.875V19.304L134.659 19.08L135.203 14.248H139.075V19.08H143.523V22.792H139.075V30.728C139.075 31.752 139.288 32.5093 139.715 33C140.142 33.4907 140.75 33.736 141.539 33.736C141.838 33.736 142.147 33.6933 142.467 33.608C142.787 33.5227 143.064 33.4373 143.299 33.352L144.099 36.776C143.608 36.9253 143.043 37.0747 142.403 37.224C141.784 37.3733 141.08 37.448 140.291 37.448ZM154.035 37.448C152.392 37.448 150.909 37.0747 149.587 36.328C148.264 35.5813 147.219 34.5147 146.451 33.128C145.683 31.72 145.299 30.024 145.299 28.04C145.299 26.056 145.715 24.3707 146.547 22.984C147.4 21.576 148.52 20.4987 149.907 19.752C151.315 19.0053 152.829 18.632 154.451 18.632C155.56 18.632 156.541 18.824 157.395 19.208C158.248 19.5707 159.005 20.0507 159.667 20.648L157.427 23.624C157 23.24 156.563 22.952 156.115 22.76C155.667 22.568 155.197 22.472 154.707 22.472C153.789 22.472 152.979 22.7067 152.275 23.176C151.592 23.624 151.059 24.264 150.675 25.096C150.312 25.928 150.131 26.9093 150.131 28.04C150.131 29.1707 150.312 30.152 150.675 30.984C151.059 31.816 151.581 32.4667 152.243 32.936C152.925 33.384 153.693 33.608 154.547 33.608C155.187 33.608 155.805 33.4693 156.403 33.192C157 32.9147 157.544 32.5733 158.035 32.168L159.891 35.272C159.037 36.0187 158.088 36.5733 157.043 36.936C156.019 37.2773 155.016 37.448 154.035 37.448ZM163.294 37V11.464H167.998V17.896L167.774 21.256C168.478 20.5733 169.288 19.9653 170.206 19.432C171.123 18.8987 172.19 18.632 173.406 18.632C175.347 18.632 176.755 19.272 177.63 20.552C178.504 21.8107 178.942 23.5707 178.942 25.832V37H174.238V26.408C174.238 25.0213 174.035 24.0507 173.63 23.496C173.246 22.9413 172.606 22.664 171.71 22.664C170.984 22.664 170.344 22.8347 169.79 23.176C169.256 23.5173 168.659 24.0187 167.998 24.68V37H163.294ZM191.57 37.448C189.906 37.448 188.402 37.0747 187.058 36.328C185.714 35.5813 184.637 34.504 183.826 33.096C183.037 31.688 182.642 30.0027 182.642 28.04C182.642 26.5893 182.866 25.288 183.314 24.136C183.784 22.984 184.413 22.0027 185.202 21.192C186.013 20.36 186.909 19.7307 187.89 19.304C188.893 18.856 189.928 18.632 190.994 18.632C192.637 18.632 194.013 19.0053 195.122 19.752C196.232 20.4773 197.064 21.4907 197.618 22.792C198.194 24.072 198.482 25.544 198.482 27.208C198.482 27.6347 198.461 28.0507 198.418 28.456C198.376 28.84 198.322 29.1493 198.258 29.384H187.218C187.346 30.344 187.634 31.1547 188.082 31.816C188.53 32.4773 189.106 32.9787 189.81 33.32C190.514 33.64 191.314 33.8 192.21 33.8C192.936 33.8 193.618 33.704 194.258 33.512C194.898 33.2987 195.549 32.9893 196.21 32.584L197.81 35.464C196.936 36.0613 195.954 36.5413 194.866 36.904C193.778 37.2667 192.68 37.448 191.57 37.448ZM187.122 26.216H194.45C194.45 25.0213 194.173 24.072 193.618 23.368C193.085 22.6427 192.232 22.28 191.058 22.28C190.44 22.28 189.853 22.4293 189.298 22.728C188.744 23.0053 188.274 23.4427 187.89 24.04C187.506 24.616 187.25 25.3413 187.122 26.216ZM202.356 37V19.08H206.196L206.548 22.248H206.644C207.305 21.0747 208.084 20.1787 208.98 19.56C209.876 18.9413 210.793 18.632 211.732 18.632C212.244 18.632 212.649 18.6747 212.948 18.76C213.268 18.824 213.556 18.9093 213.812 19.016L213.044 23.08C212.703 22.9947 212.393 22.9307 212.116 22.888C211.86 22.824 211.529 22.792 211.124 22.792C210.441 22.792 209.716 23.0587 208.948 23.592C208.201 24.1253 207.572 25.032 207.06 26.312V37H202.356Z" fill="black"/>
<mask id="mask0_417_181" style="mask-type:alpha" maskUnits="userSpaceOnUse" x="10" y="11" width="28" height="28">
<path d="M25.1667 27.3333L10.8167 29.6667C11.479 31.5358 12.5308 33.2429 13.9025 34.6749C15.2742 36.1069 16.9344 37.2312 18.7733 37.9733L18.5167 37.8333L25.1667 27.3333ZM37.1833 20.3333C36.5334 18.4885 35.5041 16.8003 34.1618 15.3776C32.8195 13.955 31.1939 12.8293 29.39 12.0733L24 22.6667L37.1833 20.3333ZM20.7567 38.6033C21.8067 38.86 22.88 39 24 39C27.1267 39 29.9966 37.95 32.33 36.2233L27.1033 25L20.7567 38.6033ZM13.6167 15.6433C11.291 18.2049 10.0018 21.5402 10 25C10 25.7933 10.0933 26.5633 10.21 27.3333H22.8333L13.6167 15.6433ZM34.1266 34.6367C36.618 32.0479 38.0067 28.5928 38 25C38 24.2067 37.9066 23.4367 37.79 22.6667H26.3333L34.1266 34.6367ZM27.1033 11.35C26.1 11.14 25.0733 11 24 11C20.7333 11 17.7233 12.1433 15.3433 14.01L21.6667 25L27.1033 11.35Z" fill="black"/>
</mask>
<g mask="url(#mask0_417_181)">
<mask id="path-3-outside-1_417_181" maskUnits="userSpaceOnUse" x="13" y="10" width="22" height="30" fill="black">
<rect fill="white" x="13" y="10" width="22" height="30"/>
<path d="M23.9996 37.448C22.421 37.448 20.8743 37.1493 19.3596 36.552C17.845 35.9547 16.5116 35.1013 15.3596 33.992L18.0796 30.728C18.9116 31.5173 19.861 32.1573 20.9276 32.648C22.0156 33.1173 23.0716 33.352 24.0956 33.352C25.333 33.352 26.2716 33.1067 26.9116 32.616C27.5516 32.1253 27.8716 31.464 27.8716 30.632C27.8716 30.0347 27.7116 29.5653 27.3916 29.224C27.093 28.8613 26.677 28.5413 26.1436 28.264C25.6103 27.9867 24.9916 27.7093 24.2876 27.432L21.1516 26.056C20.3623 25.736 19.5943 25.3093 18.8476 24.776C18.1223 24.2213 17.5143 23.528 17.0236 22.696C16.5543 21.864 16.3196 20.872 16.3196 19.72C16.3196 18.4187 16.6716 17.256 17.3756 16.232C18.0796 15.208 19.0503 14.3973 20.2876 13.8C21.525 13.1813 22.933 12.872 24.5116 12.872C25.9196 12.872 27.2743 13.1387 28.5756 13.672C29.877 14.2053 31.0076 14.9627 31.9676 15.944L29.5676 18.888C28.821 18.2693 28.0423 17.7893 27.2316 17.448C26.421 17.1067 25.5143 16.936 24.5116 16.936C23.4876 16.936 22.6663 17.16 22.0476 17.608C21.4503 18.0347 21.1516 18.6427 21.1516 19.432C21.1516 19.9867 21.3223 20.4453 21.6636 20.808C22.005 21.1707 22.453 21.4907 23.0076 21.768C23.5623 22.024 24.1703 22.2907 24.8316 22.568L27.9356 23.816C28.8956 24.2 29.7276 24.68 30.4316 25.256C31.157 25.832 31.7116 26.5253 32.0956 27.336C32.501 28.1467 32.7036 29.128 32.7036 30.28C32.7036 31.56 32.3516 32.744 31.6476 33.832C30.965 34.92 29.973 35.7947 28.6716 36.456C27.3916 37.1173 25.8343 37.448 23.9996 37.448Z"/>
</mask>
<path d="M23.9996 37.448C22.421 37.448 20.8743 37.1493 19.3596 36.552C17.845 35.9547 16.5116 35.1013 15.3596 33.992L18.0796 30.728C18.9116 31.5173 19.861 32.1573 20.9276 32.648C22.0156 33.1173 23.0716 33.352 24.0956 33.352C25.333 33.352 26.2716 33.1067 26.9116 32.616C27.5516 32.1253 27.8716 31.464 27.8716 30.632C27.8716 30.0347 27.7116 29.5653 27.3916 29.224C27.093 28.8613 26.677 28.5413 26.1436 28.264C25.6103 27.9867 24.9916 27.7093 24.2876 27.432L21.1516 26.056C20.3623 25.736 19.5943 25.3093 18.8476 24.776C18.1223 24.2213 17.5143 23.528 17.0236 22.696C16.5543 21.864 16.3196 20.872 16.3196 19.72C16.3196 18.4187 16.6716 17.256 17.3756 16.232C18.0796 15.208 19.0503 14.3973 20.2876 13.8C21.525 13.1813 22.933 12.872 24.5116 12.872C25.9196 12.872 27.2743 13.1387 28.5756 13.672C29.877 14.2053 31.0076 14.9627 31.9676 15.944L29.5676 18.888C28.821 18.2693 28.0423 17.7893 27.2316 17.448C26.421 17.1067 25.5143 16.936 24.5116 16.936C23.4876 16.936 22.6663 17.16 22.0476 17.608C21.4503 18.0347 21.1516 18.6427 21.1516 19.432C21.1516 19.9867 21.3223 20.4453 21.6636 20.808C22.005 21.1707 22.453 21.4907 23.0076 21.768C23.5623 22.024 24.1703 22.2907 24.8316 22.568L27.9356 23.816C28.8956 24.2 29.7276 24.68 30.4316 25.256C31.157 25.832 31.7116 26.5253 32.0956 27.336C32.501 28.1467 32.7036 29.128 32.7036 30.28C32.7036 31.56 32.3516 32.744 31.6476 33.832C30.965 34.92 29.973 35.7947 28.6716 36.456C27.3916 37.1173 25.8343 37.448 23.9996 37.448Z" fill="black"/>
<path d="M19.3596 36.552L20.0934 34.6915L20.0934 34.6915L19.3596 36.552ZM15.3596 33.992L13.8232 32.7116C13.1517 33.5174 13.2168 34.7051 13.9723 35.4326L15.3596 33.992ZM18.0796 30.728L19.4561 29.2771C19.0551 28.8966 18.5145 28.6991 17.9627 28.7314C17.4109 28.7637 16.8971 29.023 16.5432 29.4476L18.0796 30.728ZM20.9276 32.648L20.0918 34.465C20.1063 34.4716 20.1208 34.4781 20.1354 34.4844L20.9276 32.648ZM26.9116 32.616L25.6948 31.0288L26.9116 32.616ZM27.3916 29.224L25.8478 30.4954C25.875 30.5285 25.9033 30.5606 25.9326 30.5919L27.3916 29.224ZM26.1436 28.264L25.2209 30.0384L25.2209 30.0384L26.1436 28.264ZM24.2876 27.432L23.484 29.2635C23.5074 29.2737 23.5309 29.2835 23.5546 29.2928L24.2876 27.432ZM21.1516 26.056L21.9552 24.2245C21.9379 24.217 21.9205 24.2096 21.903 24.2025L21.1516 26.056ZM18.8476 24.776L17.6327 26.3647C17.65 26.3779 17.6675 26.3908 17.6851 26.4035L18.8476 24.776ZM17.0236 22.696L15.2817 23.6786C15.288 23.6898 15.2944 23.7009 15.3009 23.712L17.0236 22.696ZM17.3756 16.232L15.7275 15.0989L15.7275 15.0989L17.3756 16.232ZM20.2876 13.8L21.1571 15.6011C21.1655 15.5971 21.1738 15.593 21.1821 15.5889L20.2876 13.8ZM28.5756 13.672L27.8172 15.5226L27.8172 15.5226L28.5756 13.672ZM31.9676 15.944L33.5178 17.2077C34.1609 16.4189 34.109 15.2729 33.3973 14.5454L31.9676 15.944ZM29.5676 18.888L28.2916 20.428C28.7022 20.7682 29.2316 20.9304 29.7622 20.8785C30.2929 20.8266 30.7809 20.565 31.1178 20.1517L29.5676 18.888ZM27.2316 17.448L26.4555 19.2913L26.4555 19.2913L27.2316 17.448ZM22.0476 17.608L23.2101 19.2355L23.2206 19.2279L22.0476 17.608ZM21.6636 20.808L23.12 19.4373L23.12 19.4373L21.6636 20.808ZM23.0076 21.768L22.1132 23.5569C22.1318 23.5662 22.1506 23.5752 22.1695 23.5839L23.0076 21.768ZM24.8316 22.568L24.0582 24.4124C24.0673 24.4162 24.0764 24.42 24.0855 24.4236L24.8316 22.568ZM27.9356 23.816L27.1895 25.6716L27.1928 25.673L27.9356 23.816ZM30.4316 25.256L29.1651 26.8039C29.1727 26.8101 29.1802 26.8162 29.1879 26.8222L30.4316 25.256ZM32.0956 27.336L30.2881 28.1922C30.2942 28.205 30.3004 28.2177 30.3068 28.2304L32.0956 27.336ZM31.6476 33.832L29.9685 32.7455C29.9634 32.7533 29.9584 32.7611 29.9535 32.769L31.6476 33.832ZM28.6716 36.456L27.7655 34.673L27.7536 34.6791L28.6716 36.456ZM23.9996 35.448C22.68 35.448 21.3818 35.1996 20.0934 34.6915L18.6259 38.4125C20.3667 39.0991 22.1619 39.448 23.9996 39.448V35.448ZM20.0934 34.6915C18.8174 34.1883 17.7071 33.476 16.7469 32.5514L13.9723 35.4326C15.3161 36.7266 16.8725 37.7211 18.6259 38.4125L20.0934 34.6915ZM16.8961 35.2724L19.6161 32.0084L16.5432 29.4476L13.8232 32.7116L16.8961 35.2724ZM16.7031 32.1789C17.6979 33.1227 18.8309 33.8849 20.0918 34.465L21.7634 30.831C20.891 30.4297 20.1254 29.912 19.4561 29.2771L16.7031 32.1789ZM20.1354 34.4844C21.4346 35.0449 22.7597 35.352 24.0956 35.352V31.352C23.3835 31.352 22.5966 31.1898 21.7198 30.8116L20.1354 34.4844ZM24.0956 35.352C25.5509 35.352 26.9967 35.0709 28.1285 34.2032L25.6948 31.0288C25.5466 31.1424 25.115 31.352 24.0956 31.352V35.352ZM28.1285 34.2032C29.2802 33.3202 29.8716 32.063 29.8716 30.632H25.8716C25.8716 30.7864 25.8435 30.8558 25.8313 30.8809C25.8201 30.904 25.7917 30.9545 25.6948 31.0288L28.1285 34.2032ZM29.8716 30.632C29.8716 29.6726 29.6067 28.6625 28.8507 27.8561L25.9326 30.5919C25.9121 30.5701 25.8945 30.5463 25.8807 30.523C25.8671 30.5 25.8606 30.4833 25.8586 30.4773C25.855 30.4667 25.8716 30.5093 25.8716 30.632H29.8716ZM28.9355 27.9526C28.4251 27.3329 27.7744 26.8578 27.0663 26.4896L25.2209 30.0384C25.5795 30.2249 25.7608 30.3898 25.8478 30.4954L28.9355 27.9526ZM27.0663 26.4896C26.458 26.1732 25.7737 25.8678 25.0207 25.5712L23.5546 29.2928C24.2096 29.5509 24.7626 29.8001 25.2209 30.0384L27.0663 26.4896ZM25.0912 25.6005L21.9552 24.2245L20.348 27.8875L23.484 29.2635L25.0912 25.6005ZM21.903 24.2025C21.2698 23.9458 20.6389 23.5977 20.0101 23.1485L17.6851 26.4035C18.5497 27.021 19.4547 27.5262 20.4002 27.9095L21.903 24.2025ZM20.0625 23.1873C19.5534 22.798 19.1139 22.3032 18.7464 21.68L15.3009 23.712C15.9147 24.7528 16.6912 25.6447 17.6327 26.3647L20.0625 23.1873ZM18.7656 21.7134C18.4971 21.2373 18.3196 20.5984 18.3196 19.72H14.3196C14.3196 21.1456 14.6115 22.4907 15.2817 23.6786L18.7656 21.7134ZM18.3196 19.72C18.3196 18.803 18.5601 18.0394 19.0237 17.3651L15.7275 15.0989C14.7831 16.4726 14.3196 18.0343 14.3196 19.72H18.3196ZM19.0237 17.3651C19.5104 16.6572 20.1991 16.0636 21.1571 15.6011L19.4181 11.9989C17.9015 12.7311 16.6489 13.7588 15.7275 15.0989L19.0237 17.3651ZM21.1821 15.5889C22.1048 15.1275 23.1994 14.872 24.5116 14.872V10.872C22.6665 10.872 20.9451 11.2352 19.3932 12.0111L21.1821 15.5889ZM24.5116 14.872C25.6598 14.872 26.7568 15.088 27.8172 15.5226L29.3341 11.8214C27.7918 11.1893 26.1794 10.872 24.5116 10.872V14.872ZM27.8172 15.5226C28.8726 15.9552 29.7733 16.5609 30.538 17.3426L33.3973 14.5454C32.242 13.3644 30.8813 12.4555 29.3341 11.8214L27.8172 15.5226ZM30.4175 14.6803L28.0175 17.6243L31.1178 20.1517L33.5178 17.2077L30.4175 14.6803ZM30.8437 17.348C29.9614 16.6169 29.0164 16.0294 28.0077 15.6047L26.4555 19.2913C27.0681 19.5492 27.6805 19.9217 28.2916 20.428L30.8437 17.348ZM28.0077 15.6047C26.9194 15.1465 25.7438 14.936 24.5116 14.936V18.936C25.2848 18.936 25.9225 19.0669 26.4555 19.2913L28.0077 15.6047ZM24.5116 14.936C23.208 14.936 21.9336 15.2212 20.8746 15.9881L23.2206 19.2279C23.3989 19.0988 23.7673 18.936 24.5116 18.936V14.936ZM20.8852 15.9805C19.7175 16.8146 19.1516 18.0538 19.1516 19.432H23.1516C23.1516 19.2927 23.1768 19.2535 23.1707 19.2658C23.1689 19.2694 23.1667 19.2722 23.1675 19.2713C23.1688 19.2698 23.1801 19.2569 23.2101 19.2355L20.8852 15.9805ZM19.1516 19.432C19.1516 20.4333 19.4759 21.4017 20.2072 22.1787L23.12 19.4373C23.1224 19.4398 23.1291 19.4475 23.1369 19.46C23.1447 19.4725 23.1504 19.4848 23.1541 19.4945C23.1576 19.504 23.1572 19.5061 23.1558 19.4978C23.1544 19.4892 23.1516 19.4681 23.1516 19.432H19.1516ZM20.2072 22.1787C20.7439 22.749 21.3977 23.1991 22.1132 23.5569L23.9021 19.9791C23.5082 19.7822 23.266 19.5924 23.12 19.4373L20.2072 22.1787ZM22.1695 23.5839C22.7488 23.8513 23.3787 24.1275 24.0582 24.4124L25.6051 20.7236C24.9618 20.4539 24.3757 20.1967 23.8457 19.9521L22.1695 23.5839ZM24.0855 24.4236L27.1895 25.6716L28.6817 21.9604L25.5777 20.7124L24.0855 24.4236ZM27.1928 25.673C27.989 25.9914 28.6388 26.3733 29.1651 26.8039L31.6981 23.7081C30.8164 22.9867 29.8023 22.4086 28.6784 21.959L27.1928 25.673ZM29.1879 26.8222C29.6815 27.2142 30.0396 27.6674 30.2881 28.1922L33.9031 26.4798C33.3837 25.3833 32.6324 24.4498 31.6754 23.6898L29.1879 26.8222ZM30.3068 28.2304C30.5408 28.6985 30.7036 29.3567 30.7036 30.28H34.7036C34.7036 28.8993 34.4611 27.5948 33.8845 26.4416L30.3068 28.2304ZM30.7036 30.28C30.7036 31.1694 30.4658 31.9769 29.9685 32.7455L33.3268 34.9185C34.2374 33.5111 34.7036 31.9506 34.7036 30.28H30.7036ZM29.9535 32.769C29.4886 33.5099 28.7888 34.153 27.7655 34.673L29.5777 38.239C31.1571 37.4363 32.4413 36.3301 33.3418 34.895L29.9535 32.769ZM27.7536 34.6791C26.8243 35.1593 25.5999 35.448 23.9996 35.448V39.448C26.0687 39.448 27.9589 39.0754 29.5897 38.2329L27.7536 34.6791Z" fill="black" mask="url(#path-3-outside-1_417_181)"/>
</g>
<mask id="mask1_417_181" style="mask-type:alpha" maskUnits="userSpaceOnUse" x="86" y="10" width="28" height="28">
<path d="M101.167 26.3333L86.8167 28.6667C87.479 30.5358 88.5308 32.2429 89.9025 33.6749C91.2742 35.1069 92.9344 36.2312 94.7733 36.9733L94.5167 36.8333L101.167 26.3333ZM113.183 19.3333C112.533 17.4885 111.504 15.8003 110.162 14.3776C108.819 12.955 107.194 11.8293 105.39 11.0733L100 21.6667L113.183 19.3333ZM96.7567 37.6033C97.8067 37.86 98.88 38 100 38C103.127 38 105.997 36.95 108.33 35.2233L103.103 24L96.7567 37.6033ZM89.6167 14.6433C87.291 17.2049 86.0018 20.5402 86 24C86 24.7933 86.0933 25.5633 86.21 26.3333H98.8333L89.6167 14.6433ZM110.127 33.6367C112.618 31.0479 114.007 27.5928 114 24C114 23.2067 113.907 22.4367 113.79 21.6667H102.333L110.127 33.6367ZM103.103 10.35C102.1 10.14 101.073 10 100 10C96.7333 10 93.7233 11.1433 91.3433 13.01L97.6667 24L103.103 10.35Z" fill="black"/>
</mask>
<g mask="url(#mask1_417_181)">
<mask id="path-6-outside-2_417_181" maskUnits="userSpaceOnUse" x="89" y="9" width="24" height="30" fill="black">
<rect fill="white" x="89" y="9" width="24" height="30"/>
<path d="M102.544 36.448C101.051 36.448 99.6533 36.192 98.352 35.68C97.0507 35.1467 95.8987 34.3573 94.896 33.312C93.9147 32.2667 93.136 30.9867 92.56 29.472C92.0053 27.9573 91.728 26.2187 91.728 24.256C91.728 22.2933 92.016 20.5547 92.592 19.04C93.168 17.504 93.9573 16.2027 94.96 15.136C95.984 14.0693 97.1573 13.2587 98.48 12.704C99.824 12.1493 101.243 11.872 102.736 11.872C104.251 11.872 105.595 12.1813 106.768 12.8C107.963 13.3973 108.933 14.1013 109.68 14.912L107.216 17.92C106.619 17.3227 105.957 16.8427 105.232 16.48C104.528 16.1173 103.728 15.936 102.832 15.936C101.637 15.936 100.56 16.2667 99.6 16.928C98.6613 17.568 97.9253 18.496 97.392 19.712C96.8587 20.928 96.592 22.3893 96.592 24.096C96.592 25.824 96.8373 27.3067 97.328 28.544C97.84 29.76 98.5547 30.6987 99.472 31.36C100.411 32.0213 101.499 32.352 102.736 32.352C103.76 32.352 104.667 32.1387 105.456 31.712C106.267 31.264 106.981 30.6987 107.6 30.016L110.128 32.96C109.147 34.112 108.027 34.9867 106.768 35.584C105.509 36.16 104.101 36.448 102.544 36.448Z"/>
</mask>
<path d="M102.544 36.448C101.051 36.448 99.6533 36.192 98.352 35.68C97.0507 35.1467 95.8987 34.3573 94.896 33.312C93.9147 32.2667 93.136 30.9867 92.56 29.472C92.0053 27.9573 91.728 26.2187 91.728 24.256C91.728 22.2933 92.016 20.5547 92.592 19.04C93.168 17.504 93.9573 16.2027 94.96 15.136C95.984 14.0693 97.1573 13.2587 98.48 12.704C99.824 12.1493 101.243 11.872 102.736 11.872C104.251 11.872 105.595 12.1813 106.768 12.8C107.963 13.3973 108.933 14.1013 109.68 14.912L107.216 17.92C106.619 17.3227 105.957 16.8427 105.232 16.48C104.528 16.1173 103.728 15.936 102.832 15.936C101.637 15.936 100.56 16.2667 99.6 16.928C98.6613 17.568 97.9253 18.496 97.392 19.712C96.8587 20.928 96.592 22.3893 96.592 24.096C96.592 25.824 96.8373 27.3067 97.328 28.544C97.84 29.76 98.5547 30.6987 99.472 31.36C100.411 32.0213 101.499 32.352 102.736 32.352C103.76 32.352 104.667 32.1387 105.456 31.712C106.267 31.264 106.981 30.6987 107.6 30.016L110.128 32.96C109.147 34.112 108.027 34.9867 106.768 35.584C105.509 36.16 104.101 36.448 102.544 36.448Z" fill="black"/>
<path d="M98.352 35.68L97.5936 37.5306C97.6023 37.5342 97.611 37.5377 97.6198 37.5411L98.352 35.68ZM94.896 33.312L93.4379 34.6809C93.4428 34.6861 93.4477 34.6913 93.4526 34.6964L94.896 33.312ZM92.56 29.472L90.682 30.1597C90.6848 30.1675 90.6877 30.1752 90.6906 30.1829L92.56 29.472ZM92.592 19.04L94.4614 19.7509L94.4647 19.7422L92.592 19.04ZM94.96 15.136L93.5172 13.7509C93.5124 13.756 93.5075 13.7611 93.5027 13.7662L94.96 15.136ZM98.48 12.704L97.717 10.8552L97.7065 10.8596L98.48 12.704ZM106.768 12.8L105.835 14.5691C105.848 14.5758 105.861 14.5824 105.874 14.5889L106.768 12.8ZM109.68 14.912L111.227 16.1794C111.859 15.4084 111.826 14.2901 111.151 13.557L109.68 14.912ZM107.216 17.92L105.802 19.3342C106.201 19.7336 106.751 19.9455 107.315 19.9175C107.879 19.8896 108.405 19.6243 108.763 19.1874L107.216 17.92ZM105.232 16.48L104.316 18.2579C104.323 18.2616 104.33 18.2653 104.338 18.2689L105.232 16.48ZM99.6 16.928L100.727 18.5805L100.735 18.575L99.6 16.928ZM97.392 19.712L99.2236 20.5153L99.2236 20.5153L97.392 19.712ZM97.328 28.544L95.4688 29.2813C95.474 29.2943 95.4793 29.3072 95.4847 29.3201L97.328 28.544ZM99.472 31.36L98.3024 32.9824C98.3083 32.9866 98.3142 32.9908 98.3201 32.995L99.472 31.36ZM105.456 31.712L106.407 33.4714C106.412 33.4685 106.418 33.4655 106.423 33.4625L105.456 31.712ZM107.6 30.016L109.117 28.7131C108.743 28.2777 108.201 28.0239 107.627 28.0162C107.053 28.0085 106.503 28.2477 106.118 28.673L107.6 30.016ZM110.128 32.96L111.65 34.2569C112.289 33.5072 112.287 32.4042 111.645 31.6571L110.128 32.96ZM106.768 35.584L107.6 37.4026C107.609 37.3988 107.617 37.3948 107.625 37.3909L106.768 35.584ZM102.544 34.448C101.284 34.448 100.137 34.233 99.0842 33.8189L97.6198 37.5411C99.1698 38.151 100.817 38.448 102.544 38.448V34.448ZM99.1104 33.8294C98.0753 33.4051 97.1547 32.7776 96.3394 31.9275L93.4526 34.6964C94.6426 35.9371 96.0261 36.8882 97.5936 37.5306L99.1104 33.8294ZM96.3541 31.9431C95.5733 31.1114 94.9246 30.0634 94.4294 28.7611L90.6906 30.1829C91.3474 31.91 92.256 33.4219 93.4379 34.6809L96.3541 31.9431ZM94.438 28.7843C93.9794 27.5319 93.728 26.0333 93.728 24.256H89.728C89.728 26.404 90.0313 28.3828 90.682 30.1597L94.438 28.7843ZM93.728 24.256C93.728 22.4864 93.9878 20.9962 94.4614 19.7509L90.7226 18.3291C90.0442 20.1132 89.728 22.1002 89.728 24.256H93.728ZM94.4647 19.7422C94.9589 18.4242 95.6165 17.3577 96.4173 16.5058L93.5027 13.7662C92.2982 15.0476 91.3771 16.5838 90.7193 18.3378L94.4647 19.7422ZM96.4028 16.5211C97.2434 15.6454 98.1908 14.994 99.2535 14.5484L97.7065 10.8596C96.1239 11.5233 94.7246 12.4933 93.5172 13.7509L96.4028 16.5211ZM99.243 14.5527C100.338 14.1007 101.497 13.872 102.736 13.872V9.872C100.988 9.872 99.3096 10.198 97.717 10.8553L99.243 14.5527ZM102.736 13.872C103.972 13.872 104.988 14.1224 105.835 14.5691L107.701 11.0309C106.201 10.2403 104.529 9.872 102.736 9.872V13.872ZM105.874 14.5889C106.896 15.1 107.657 15.668 108.209 16.2669L111.151 13.557C110.209 12.5346 109.029 11.6946 107.662 11.0111L105.874 14.5889ZM108.133 13.6446L105.669 16.6526L108.763 19.1874L111.227 16.1794L108.133 13.6446ZM108.63 16.5058C107.887 15.7628 107.052 15.1539 106.126 14.6911L104.338 18.2689C104.863 18.5314 105.35 18.8825 105.802 19.3342L108.63 16.5058ZM106.148 14.7021C105.125 14.1753 104.004 13.936 102.832 13.936V17.936C103.452 17.936 103.931 18.0594 104.316 18.2579L106.148 14.7021ZM102.832 13.936C101.243 13.936 99.7678 14.3838 98.4654 15.281L100.735 18.575C101.352 18.1496 102.032 17.936 102.832 17.936V13.936ZM98.4733 15.2755C97.1755 16.1604 96.2186 17.4081 95.5604 18.9087L99.2236 20.5153C99.6321 19.5839 100.147 18.9756 100.727 18.5805L98.4733 15.2755ZM95.5604 18.9087C94.8892 20.4391 94.592 22.1885 94.592 24.096H98.592C98.592 22.5901 98.8282 21.4169 99.2236 20.5153L95.5604 18.9087ZM94.592 24.096C94.592 26.0048 94.8619 27.7508 95.4688 29.2813L99.1872 27.8067C98.8127 26.8626 98.592 25.6432 98.592 24.096H94.592ZM95.4847 29.3201C96.1152 30.8174 97.0404 32.0725 98.3024 32.9824L100.642 29.7376C100.069 29.3248 99.5648 28.7026 99.1713 27.7679L95.4847 29.3201ZM98.3201 32.995C99.6225 33.9125 101.12 34.352 102.736 34.352V30.352C101.877 30.352 101.199 30.1301 100.624 29.725L98.3201 32.995ZM102.736 34.352C104.045 34.352 105.287 34.0771 106.407 33.4714L104.505 29.9526C104.047 30.2002 103.475 30.352 102.736 30.352V34.352ZM106.423 33.4625C107.426 32.9085 108.315 32.2058 109.082 31.359L106.118 28.673C105.648 29.1915 105.108 29.6195 104.489 29.9615L106.423 33.4625ZM106.083 31.3189L108.611 34.2629L111.645 31.6571L109.117 28.7131L106.083 31.3189ZM108.606 31.6631C107.791 32.6188 106.893 33.3111 105.911 33.7771L107.625 37.3909C109.161 36.6623 110.502 35.6052 111.65 34.2569L108.606 31.6631ZM105.936 33.7654C104.969 34.2077 103.85 34.448 102.544 34.448V38.448C104.353 38.448 106.05 38.1123 107.6 37.4026L105.936 33.7654Z" fill="black" mask="url(#path-6-outside-2_417_181)"/>
</g>
</svg>
