<svg width="226" height="50" viewBox="0 0 226 50" fill="none" xmlns="http://www.w3.org/2000/svg">
<path d="M54.9901 37.448C53.9448 37.448 53.0168 37.224 52.2061 36.776C51.4168 36.3067 50.7981 35.6667 50.3501 34.856C49.9235 34.0453 49.7101 33.128 49.7101 32.104C49.7101 30.2053 50.5315 28.7333 52.1741 27.688C53.8168 26.6213 56.4301 25.896 60.0141 25.512C59.9928 24.9147 59.8861 24.392 59.6941 23.944C59.5021 23.4747 59.1821 23.1013 58.7341 22.824C58.3075 22.5467 57.7208 22.408 56.9741 22.408C56.1421 22.408 55.3208 22.568 54.5101 22.888C53.6995 23.208 52.8781 23.624 52.0461 24.136L50.3821 21C51.0861 20.552 51.8328 20.1573 52.6221 19.816C53.4115 19.4747 54.2435 19.1973 55.1181 18.984C55.9928 18.7493 56.8995 18.632 57.8381 18.632C59.3528 18.632 60.6221 18.9307 61.6461 19.528C62.6701 20.1253 63.4381 21.0107 63.9501 22.184C64.4621 23.3573 64.7181 24.808 64.7181 26.536V37H60.8781L60.5581 35.08H60.3981C59.6301 35.7627 58.7981 36.328 57.9021 36.776C57.0061 37.224 56.0355 37.448 54.9901 37.448ZM56.5581 33.768C57.2195 33.768 57.8168 33.6187 58.3501 33.32C58.9048 33 59.4595 32.5627 60.0141 32.008V28.424C58.5635 28.5947 57.4115 28.84 56.5581 29.16C55.7048 29.48 55.0968 29.864 54.7341 30.312C54.3715 30.7387 54.1901 31.2187 54.1901 31.752C54.1901 32.456 54.4035 32.968 54.8301 33.288C55.2781 33.608 55.8541 33.768 56.5581 33.768ZM70.3124 37V17.64C70.3124 16.4027 70.515 15.2827 70.9204 14.28C71.347 13.2773 72.0084 12.488 72.9044 11.912C73.8217 11.3147 75.027 11.016 76.5204 11.016C77.2457 11.016 77.8964 11.08 78.4724 11.208C79.0484 11.336 79.539 11.4747 79.9444 11.624L79.0804 15.144C78.483 14.8667 77.843 14.728 77.1604 14.728C76.4777 14.728 75.9444 14.952 75.5604 15.4C75.1764 15.848 74.9844 16.5627 74.9844 17.544V37H70.3124ZM67.8804 22.792V19.304L70.5684 19.08H78.4084V22.792H67.8804ZM88.6954 37.448C87.0314 37.448 85.5274 37.0747 84.1834 36.328C82.8394 35.5813 81.762 34.504 80.9514 33.096C80.162 31.688 79.7674 30.0027 79.7674 28.04C79.7674 26.5893 79.9914 25.288 80.4394 24.136C80.9087 22.984 81.538 22.0027 82.3274 21.192C83.138 20.36 84.034 19.7307 85.0154 19.304C86.018 18.856 87.0527 18.632 88.1194 18.632C89.762 18.632 91.138 19.0053 92.2474 19.752C93.3567 20.4773 94.1887 21.4907 94.7434 22.792C95.3194 24.072 95.6074 25.544 95.6074 27.208C95.6074 27.6347 95.586 28.0507 95.5434 28.456C95.5007 28.84 95.4474 29.1493 95.3834 29.384H84.3434C84.4714 30.344 84.7594 31.1547 85.2074 31.816C85.6554 32.4773 86.2314 32.9787 86.9354 33.32C87.6394 33.64 88.4394 33.8 89.3354 33.8C90.0607 33.8 90.7434 33.704 91.3834 33.512C92.0234 33.2987 92.674 32.9893 93.3354 32.584L94.9354 35.464C94.0607 36.0613 93.0794 36.5413 91.9914 36.904C90.9034 37.2667 89.8047 37.448 88.6954 37.448ZM84.2474 26.216H91.5754C91.5754 25.0213 91.298 24.072 90.7434 23.368C90.21 22.6427 89.3567 22.28 88.1834 22.28C87.5647 22.28 86.978 22.4293 86.4234 22.728C85.8687 23.0053 85.3994 23.4427 85.0154 24.04C84.6314 24.616 84.3754 25.3413 84.2474 26.216ZM116.747 37.448C115.254 37.448 113.856 37.192 112.555 36.68C111.254 36.1467 110.102 35.3573 109.099 34.312C108.118 33.2667 107.339 31.9867 106.763 30.472C106.208 28.9573 105.931 27.2187 105.931 25.256C105.931 23.2933 106.219 21.5547 106.795 20.04C107.371 18.504 108.16 17.2027 109.163 16.136C110.187 15.0693 111.36 14.2587 112.683 13.704C114.027 13.1493 115.446 12.872 116.939 12.872C118.454 12.872 119.798 13.1813 120.971 13.8C122.166 14.3973 123.136 15.1013 123.883 15.912L121.419 18.92C120.822 18.3227 120.16 17.8427 119.435 17.48C118.731 17.1173 117.931 16.936 117.035 16.936C115.84 16.936 114.763 17.2667 113.803 17.928C112.864 18.568 112.128 19.496 111.595 20.712C111.062 21.928 110.795 23.3893 110.795 25.096C110.795 26.824 111.04 28.3067 111.531 29.544C112.043 30.76 112.758 31.6987 113.675 32.36C114.614 33.0213 115.702 33.352 116.939 33.352C117.963 33.352 118.87 33.1387 119.659 32.712C120.47 32.264 121.184 31.6987 121.803 31.016L124.331 33.96C123.35 35.112 122.23 35.9867 120.971 36.584C119.712 37.16 118.304 37.448 116.747 37.448ZM132.115 37.448C131.07 37.448 130.142 37.224 129.331 36.776C128.542 36.3067 127.923 35.6667 127.475 34.856C127.048 34.0453 126.835 33.128 126.835 32.104C126.835 30.2053 127.656 28.7333 129.299 27.688C130.942 26.6213 133.555 25.896 137.139 25.512C137.118 24.9147 137.011 24.392 136.819 23.944C136.627 23.4747 136.307 23.1013 135.859 22.824C135.432 22.5467 134.846 22.408 134.099 22.408C133.267 22.408 132.446 22.568 131.635 22.888C130.824 23.208 130.003 23.624 129.171 24.136L127.507 21C128.211 20.552 128.958 20.1573 129.747 19.816C130.536 19.4747 131.368 19.1973 132.243 18.984C133.118 18.7493 134.024 18.632 134.963 18.632C136.478 18.632 137.747 18.9307 138.771 19.528C139.795 20.1253 140.563 21.0107 141.075 22.184C141.587 23.3573 141.843 24.808 141.843 26.536V37H138.003L137.683 35.08H137.523C136.755 35.7627 135.923 36.328 135.027 36.776C134.131 37.224 133.16 37.448 132.115 37.448ZM133.683 33.768C134.344 33.768 134.942 33.6187 135.475 33.32C136.03 33 136.584 32.5627 137.139 32.008V28.424C135.688 28.5947 134.536 28.84 133.683 29.16C132.83 29.48 132.222 29.864 131.859 30.312C131.496 30.7387 131.315 31.2187 131.315 31.752C131.315 32.456 131.528 32.968 131.955 33.288C132.403 33.608 132.979 33.768 133.683 33.768ZM152.416 37.448C151.008 37.448 149.867 37.1707 148.992 36.616C148.117 36.04 147.488 35.2507 147.104 34.248C146.72 33.2453 146.528 32.0827 146.528 30.76V22.792H144V19.304L146.784 19.08L147.328 14.248H151.2V19.08H155.648V22.792H151.2V30.728C151.2 31.752 151.413 32.5093 151.84 33C152.267 33.4907 152.875 33.736 153.664 33.736C153.963 33.736 154.272 33.6933 154.592 33.608C154.912 33.5227 155.189 33.4373 155.424 33.352L156.224 36.776C155.733 36.9253 155.168 37.0747 154.528 37.224C153.909 37.3733 153.205 37.448 152.416 37.448ZM166.16 37.448C164.517 37.448 163.034 37.0747 161.712 36.328C160.389 35.5813 159.344 34.5147 158.576 33.128C157.808 31.72 157.424 30.024 157.424 28.04C157.424 26.056 157.84 24.3707 158.672 22.984C159.525 21.576 160.645 20.4987 162.032 19.752C163.44 19.0053 164.954 18.632 166.576 18.632C167.685 18.632 168.666 18.824 169.52 19.208C170.373 19.5707 171.13 20.0507 171.792 20.648L169.552 23.624C169.125 23.24 168.688 22.952 168.24 22.76C167.792 22.568 167.322 22.472 166.832 22.472C165.914 22.472 165.104 22.7067 164.4 23.176C163.717 23.624 163.184 24.264 162.8 25.096C162.437 25.928 162.256 26.9093 162.256 28.04C162.256 29.1707 162.437 30.152 162.8 30.984C163.184 31.816 163.706 32.4667 164.368 32.936C165.05 33.384 165.818 33.608 166.672 33.608C167.312 33.608 167.93 33.4693 168.528 33.192C169.125 32.9147 169.669 32.5733 170.16 32.168L172.016 35.272C171.162 36.0187 170.213 36.5733 169.168 36.936C168.144 37.2773 167.141 37.448 166.16 37.448ZM175.419 37V11.464H180.123V17.896L179.899 21.256C180.603 20.5733 181.413 19.9653 182.331 19.432C183.248 18.8987 184.315 18.632 185.531 18.632C187.472 18.632 188.88 19.272 189.755 20.552C190.629 21.8107 191.067 23.5707 191.067 25.832V37H186.363V26.408C186.363 25.0213 186.16 24.0507 185.755 23.496C185.371 22.9413 184.731 22.664 183.835 22.664C183.109 22.664 182.469 22.8347 181.915 23.176C181.381 23.5173 180.784 24.0187 180.123 24.68V37H175.419ZM203.695 37.448C202.031 37.448 200.527 37.0747 199.183 36.328C197.839 35.5813 196.762 34.504 195.951 33.096C195.162 31.688 194.767 30.0027 194.767 28.04C194.767 26.5893 194.991 25.288 195.439 24.136C195.909 22.984 196.538 22.0027 197.327 21.192C198.138 20.36 199.034 19.7307 200.015 19.304C201.018 18.856 202.053 18.632 203.119 18.632C204.762 18.632 206.138 19.0053 207.247 19.752C208.357 20.4773 209.189 21.4907 209.743 22.792C210.319 24.072 210.607 25.544 210.607 27.208C210.607 27.6347 210.586 28.0507 210.543 28.456C210.501 28.84 210.447 29.1493 210.383 29.384H199.343C199.471 30.344 199.759 31.1547 200.207 31.816C200.655 32.4773 201.231 32.9787 201.935 33.32C202.639 33.64 203.439 33.8 204.335 33.8C205.061 33.8 205.743 33.704 206.383 33.512C207.023 33.2987 207.674 32.9893 208.335 32.584L209.935 35.464C209.061 36.0613 208.079 36.5413 206.991 36.904C205.903 37.2667 204.805 37.448 203.695 37.448ZM199.247 26.216H206.575C206.575 25.0213 206.298 24.072 205.743 23.368C205.21 22.6427 204.357 22.28 203.183 22.28C202.565 22.28 201.978 22.4293 201.423 22.728C200.869 23.0053 200.399 23.4427 200.015 24.04C199.631 24.616 199.375 25.3413 199.247 26.216ZM214.481 37V19.08H218.321L218.673 22.248H218.769C219.43 21.0747 220.209 20.1787 221.105 19.56C222.001 18.9413 222.918 18.632 223.857 18.632C224.369 18.632 224.774 18.6747 225.073 18.76C225.393 18.824 225.681 18.9093 225.937 19.016L225.169 23.08C224.828 22.9947 224.518 22.9307 224.241 22.888C223.985 22.824 223.654 22.792 223.249 22.792C222.566 22.792 221.841 23.0587 221.073 23.592C220.326 24.1253 219.697 25.032 219.185 26.312V37H214.481Z" fill="#005247"/>
<g clip-path="url(#clip0_406_2)">
<path d="M37.8 11.6C37.8 11.6 36.4 22.8 30.8 32C34.2 31.4 38.6 30.2 44 28C44 28 45.4 18.8 37.8 11.6ZM25.8 17.2C23.6 14.6 20.4 11.2 15.8 7.79998C10.2 10.4 5.99998 15.2 4.59998 21.2C14 17.4 22 17 25.8 17.2ZM32.6 23C33.8 19.8 35 15.2 35.8 9.59998C27.6 3.59998 18.6 6.59998 18.6 6.59998C18.6 6.59998 27.4 13.4 32.6 23ZM22.2 35C24.4 37.6 27.6 41 32.2 44.4C32.2 44.4 40.8 41.2 43.4 31C43.4 30.8 32.8 35.2 22.2 35ZM15.4 28.8C14.2 32 13 36.4 12.4 42.2C12.4 42.2 19.6 48 29.6 45.2C29.6 45.2 20.4 38.4 15.4 28.8ZM3.99998 24.2C3.99998 24.2 2.59998 33.2 10.2 40.6C10.2 40.6 11.6 29.2 17.2 20C13.8 20.6 9.19998 21.8 3.99998 24.2Z" fill="#005247"/>
<mask id="path-3-outside-1_406_2" maskUnits="userSpaceOnUse" x="13" y="10" width="22" height="30" fill="black">
<rect fill="white" x="13" y="10" width="22" height="30"/>
<path d="M23.9996 37.448C22.421 37.448 20.8743 37.1493 19.3596 36.552C17.845 35.9547 16.5116 35.1013 15.3596 33.992L18.0796 30.728C18.9116 31.5173 19.861 32.1573 20.9276 32.648C22.0156 33.1173 23.0716 33.352 24.0956 33.352C25.333 33.352 26.2716 33.1067 26.9116 32.616C27.5516 32.1253 27.8716 31.464 27.8716 30.632C27.8716 30.0347 27.7116 29.5653 27.3916 29.224C27.093 28.8613 26.677 28.5413 26.1436 28.264C25.6103 27.9867 24.9916 27.7093 24.2876 27.432L21.1516 26.056C20.3623 25.736 19.5943 25.3093 18.8476 24.776C18.1223 24.2213 17.5143 23.528 17.0236 22.696C16.5543 21.864 16.3196 20.872 16.3196 19.72C16.3196 18.4187 16.6716 17.256 17.3756 16.232C18.0796 15.208 19.0503 14.3973 20.2876 13.8C21.525 13.1813 22.933 12.872 24.5116 12.872C25.9196 12.872 27.2743 13.1387 28.5756 13.672C29.877 14.2053 31.0076 14.9627 31.9676 15.944L29.5676 18.888C28.821 18.2693 28.0423 17.7893 27.2316 17.448C26.421 17.1067 25.5143 16.936 24.5116 16.936C23.4876 16.936 22.6663 17.16 22.0476 17.608C21.4503 18.0347 21.1516 18.6427 21.1516 19.432C21.1516 19.9867 21.3223 20.4453 21.6636 20.808C22.005 21.1707 22.453 21.4907 23.0076 21.768C23.5623 22.024 24.1703 22.2907 24.8316 22.568L27.9356 23.816C28.8956 24.2 29.7276 24.68 30.4316 25.256C31.157 25.832 31.7116 26.5253 32.0956 27.336C32.501 28.1467 32.7036 29.128 32.7036 30.28C32.7036 31.56 32.3516 32.744 31.6476 33.832C30.965 34.92 29.973 35.7947 28.6716 36.456C27.3916 37.1173 25.8343 37.448 23.9996 37.448Z"/>
</mask>
<path d="M23.9996 37.448C22.421 37.448 20.8743 37.1493 19.3596 36.552C17.845 35.9547 16.5116 35.1013 15.3596 33.992L18.0796 30.728C18.9116 31.5173 19.861 32.1573 20.9276 32.648C22.0156 33.1173 23.0716 33.352 24.0956 33.352C25.333 33.352 26.2716 33.1067 26.9116 32.616C27.5516 32.1253 27.8716 31.464 27.8716 30.632C27.8716 30.0347 27.7116 29.5653 27.3916 29.224C27.093 28.8613 26.677 28.5413 26.1436 28.264C25.6103 27.9867 24.9916 27.7093 24.2876 27.432L21.1516 26.056C20.3623 25.736 19.5943 25.3093 18.8476 24.776C18.1223 24.2213 17.5143 23.528 17.0236 22.696C16.5543 21.864 16.3196 20.872 16.3196 19.72C16.3196 18.4187 16.6716 17.256 17.3756 16.232C18.0796 15.208 19.0503 14.3973 20.2876 13.8C21.525 13.1813 22.933 12.872 24.5116 12.872C25.9196 12.872 27.2743 13.1387 28.5756 13.672C29.877 14.2053 31.0076 14.9627 31.9676 15.944L29.5676 18.888C28.821 18.2693 28.0423 17.7893 27.2316 17.448C26.421 17.1067 25.5143 16.936 24.5116 16.936C23.4876 16.936 22.6663 17.16 22.0476 17.608C21.4503 18.0347 21.1516 18.6427 21.1516 19.432C21.1516 19.9867 21.3223 20.4453 21.6636 20.808C22.005 21.1707 22.453 21.4907 23.0076 21.768C23.5623 22.024 24.1703 22.2907 24.8316 22.568L27.9356 23.816C28.8956 24.2 29.7276 24.68 30.4316 25.256C31.157 25.832 31.7116 26.5253 32.0956 27.336C32.501 28.1467 32.7036 29.128 32.7036 30.28C32.7036 31.56 32.3516 32.744 31.6476 33.832C30.965 34.92 29.973 35.7947 28.6716 36.456C27.3916 37.1173 25.8343 37.448 23.9996 37.448Z" fill="#FFEC00"/>
<path d="M19.3596 36.552L20.0934 34.6915L19.3596 36.552ZM15.3596 33.992L13.8232 32.7116C13.1517 33.5174 13.2168 34.7051 13.9723 35.4326L15.3596 33.992ZM18.0796 30.728L19.4561 29.2771C19.0551 28.8966 18.5145 28.6991 17.9627 28.7314C17.4109 28.7637 16.8971 29.023 16.5432 29.4476L18.0796 30.728ZM20.9276 32.648L20.0918 34.465C20.1063 34.4716 20.1208 34.4781 20.1354 34.4844L20.9276 32.648ZM26.9116 32.616L25.6948 31.0288L26.9116 32.616ZM27.3916 29.224L25.8478 30.4954C25.875 30.5285 25.9033 30.5606 25.9326 30.5919L27.3916 29.224ZM26.1436 28.264L25.2209 30.0384L25.2209 30.0384L26.1436 28.264ZM24.2876 27.432L23.484 29.2635C23.5074 29.2737 23.5309 29.2835 23.5546 29.2928L24.2876 27.432ZM21.1516 26.056L21.9552 24.2245C21.9379 24.217 21.9205 24.2096 21.903 24.2025L21.1516 26.056ZM18.8476 24.776L17.6327 26.3647C17.65 26.3779 17.6675 26.3908 17.6851 26.4035L18.8476 24.776ZM17.0236 22.696L15.2817 23.6786C15.288 23.6898 15.2944 23.7009 15.3009 23.712L17.0236 22.696ZM17.3756 16.232L15.7275 15.0989L15.7275 15.0989L17.3756 16.232ZM20.2876 13.8L21.1571 15.6011C21.1655 15.5971 21.1738 15.593 21.1821 15.5889L20.2876 13.8ZM28.5756 13.672L27.8172 15.5226H27.8172L28.5756 13.672ZM31.9676 15.944L33.5178 17.2077C34.1609 16.4189 34.109 15.2729 33.3973 14.5454L31.9676 15.944ZM29.5676 18.888L28.2916 20.428C28.7022 20.7682 29.2316 20.9304 29.7622 20.8785C30.2929 20.8266 30.7809 20.565 31.1178 20.1517L29.5676 18.888ZM27.2316 17.448L26.4555 19.2913L26.4555 19.2913L27.2316 17.448ZM22.0476 17.608L23.2101 19.2355L23.2206 19.2279L22.0476 17.608ZM21.6636 20.808L23.12 19.4373L23.12 19.4373L21.6636 20.808ZM23.0076 21.768L22.1132 23.5569C22.1318 23.5662 22.1506 23.5752 22.1695 23.5839L23.0076 21.768ZM24.8316 22.568L24.0582 24.4124C24.0673 24.4162 24.0764 24.42 24.0855 24.4236L24.8316 22.568ZM27.9356 23.816L27.1895 25.6716L27.1928 25.673L27.9356 23.816ZM30.4316 25.256L29.1651 26.8039C29.1727 26.8101 29.1802 26.8162 29.1879 26.8222L30.4316 25.256ZM32.0956 27.336L30.2881 28.1922C30.2942 28.205 30.3004 28.2177 30.3068 28.2304L32.0956 27.336ZM31.6476 33.832L29.9685 32.7455C29.9634 32.7533 29.9584 32.7611 29.9535 32.769L31.6476 33.832ZM28.6716 36.456L27.7655 34.673L27.7536 34.6791L28.6716 36.456ZM23.9996 35.448C22.68 35.448 21.3818 35.1996 20.0934 34.6915L18.6259 38.4125C20.3667 39.0991 22.1619 39.448 23.9996 39.448V35.448ZM20.0934 34.6915C18.8174 34.1883 17.7071 33.476 16.7469 32.5514L13.9723 35.4326C15.3161 36.7266 16.8725 37.7211 18.6259 38.4125L20.0934 34.6915ZM16.8961 35.2724L19.6161 32.0084L16.5432 29.4476L13.8232 32.7116L16.8961 35.2724ZM16.7031 32.1789C17.6979 33.1227 18.8309 33.8849 20.0918 34.465L21.7634 30.831C20.891 30.4297 20.1254 29.912 19.4561 29.2771L16.7031 32.1789ZM20.1354 34.4844C21.4346 35.0449 22.7597 35.352 24.0956 35.352V31.352C23.3835 31.352 22.5966 31.1898 21.7198 30.8116L20.1354 34.4844ZM24.0956 35.352C25.5509 35.352 26.9967 35.0709 28.1285 34.2032L25.6948 31.0288C25.5466 31.1424 25.115 31.352 24.0956 31.352V35.352ZM28.1285 34.2032C29.2802 33.3202 29.8716 32.063 29.8716 30.632H25.8716C25.8716 30.7864 25.8435 30.8558 25.8313 30.8809C25.8201 30.904 25.7917 30.9545 25.6948 31.0288L28.1285 34.2032ZM29.8716 30.632C29.8716 29.6726 29.6067 28.6625 28.8507 27.8561L25.9326 30.5919C25.9121 30.5701 25.8945 30.5463 25.8807 30.523C25.8671 30.5 25.8606 30.4833 25.8586 30.4773C25.855 30.4667 25.8716 30.5093 25.8716 30.632H29.8716ZM28.9355 27.9526C28.4251 27.3329 27.7744 26.8578 27.0663 26.4896L25.2209 30.0384C25.5795 30.2249 25.7608 30.3898 25.8478 30.4954L28.9355 27.9526ZM27.0663 26.4896C26.458 26.1732 25.7737 25.8678 25.0207 25.5712L23.5546 29.2928C24.2096 29.5509 24.7626 29.8001 25.2209 30.0384L27.0663 26.4896ZM25.0912 25.6005L21.9552 24.2245L20.348 27.8875L23.484 29.2635L25.0912 25.6005ZM21.903 24.2025C21.2698 23.9458 20.6389 23.5977 20.0101 23.1485L17.6851 26.4035C18.5497 27.021 19.4547 27.5262 20.4002 27.9095L21.903 24.2025ZM20.0625 23.1873C19.5534 22.798 19.1139 22.3032 18.7464 21.68L15.3009 23.712C15.9147 24.7528 16.6912 25.6447 17.6327 26.3647L20.0625 23.1873ZM18.7656 21.7134C18.4971 21.2373 18.3196 20.5984 18.3196 19.72H14.3196C14.3196 21.1456 14.6115 22.4907 15.2817 23.6786L18.7656 21.7134ZM18.3196 19.72C18.3196 18.803 18.5601 18.0394 19.0237 17.3651L15.7275 15.0989C14.7831 16.4726 14.3196 18.0343 14.3196 19.72H18.3196ZM19.0237 17.3651C19.5104 16.6572 20.1991 16.0636 21.1571 15.6011L19.4181 11.9989C17.9015 12.7311 16.6489 13.7588 15.7275 15.0989L19.0237 17.3651ZM21.1821 15.5889C22.1048 15.1275 23.1994 14.872 24.5116 14.872V10.872C22.6665 10.872 20.9451 11.2352 19.3932 12.0111L21.1821 15.5889ZM24.5116 14.872C25.6598 14.872 26.7568 15.088 27.8172 15.5226L29.3341 11.8214C27.7918 11.1893 26.1794 10.872 24.5116 10.872V14.872ZM27.8172 15.5226C28.8726 15.9552 29.7733 16.5609 30.538 17.3426L33.3973 14.5454C32.242 13.3644 30.8813 12.4555 29.3341 11.8214L27.8172 15.5226ZM30.4175 14.6803L28.0175 17.6243L31.1178 20.1517L33.5178 17.2077L30.4175 14.6803ZM30.8437 17.348C29.9614 16.6169 29.0164 16.0294 28.0077 15.6047L26.4555 19.2913C27.0681 19.5492 27.6805 19.9217 28.2916 20.428L30.8437 17.348ZM28.0077 15.6047C26.9194 15.1465 25.7438 14.936 24.5116 14.936V18.936C25.2848 18.936 25.9225 19.0669 26.4555 19.2913L28.0077 15.6047ZM24.5116 14.936C23.208 14.936 21.9336 15.2212 20.8746 15.9881L23.2206 19.2279C23.3989 19.0988 23.7673 18.936 24.5116 18.936V14.936ZM20.8852 15.9805C19.7175 16.8146 19.1516 18.0538 19.1516 19.432H23.1516C23.1516 19.2927 23.1768 19.2535 23.1707 19.2658C23.1689 19.2694 23.1667 19.2722 23.1675 19.2713C23.1688 19.2698 23.1801 19.2569 23.2101 19.2355L20.8852 15.9805ZM19.1516 19.432C19.1516 20.4333 19.4759 21.4017 20.2072 22.1787L23.12 19.4373C23.1224 19.4398 23.1291 19.4475 23.1369 19.46C23.1447 19.4725 23.1504 19.4848 23.1541 19.4945C23.1576 19.504 23.1572 19.5061 23.1558 19.4978C23.1544 19.4892 23.1516 19.4681 23.1516 19.432H19.1516ZM20.2072 22.1787C20.7439 22.749 21.3977 23.1991 22.1132 23.5569L23.9021 19.9791C23.5082 19.7822 23.266 19.5924 23.12 19.4373L20.2072 22.1787ZM22.1695 23.5839C22.7488 23.8513 23.3787 24.1275 24.0582 24.4124L25.6051 20.7236C24.9619 20.4539 24.3757 20.1967 23.8457 19.9521L22.1695 23.5839ZM24.0855 24.4236L27.1895 25.6716L28.6817 21.9604L25.5777 20.7124L24.0855 24.4236ZM27.1928 25.673C27.989 25.9914 28.6388 26.3733 29.1651 26.8039L31.6981 23.7081C30.8164 22.9867 29.8023 22.4086 28.6784 21.959L27.1928 25.673ZM29.1879 26.8222C29.6815 27.2142 30.0396 27.6674 30.2881 28.1922L33.9031 26.4798C33.3837 25.3833 32.6324 24.4498 31.6754 23.6898L29.1879 26.8222ZM30.3068 28.2304C30.5408 28.6985 30.7036 29.3567 30.7036 30.28H34.7036C34.7036 28.8993 34.4611 27.5948 33.8845 26.4416L30.3068 28.2304ZM30.7036 30.28C30.7036 31.1694 30.4658 31.9769 29.9685 32.7455L33.3268 34.9185C34.2374 33.5111 34.7036 31.9506 34.7036 30.28H30.7036ZM29.9535 32.769C29.4886 33.5099 28.7888 34.153 27.7655 34.673L29.5777 38.239C31.1571 37.4363 32.4413 36.3301 33.3418 34.895L29.9535 32.769ZM27.7536 34.6791C26.8243 35.1593 25.5999 35.448 23.9996 35.448V39.448C26.0687 39.448 27.9589 39.0754 29.5897 38.2329L27.7536 34.6791Z" fill="#005247" mask="url(#path-3-outside-1_406_2)"/>
</g>
<defs>
<clipPath id="clip0_406_2">
<rect width="48" height="48" fill="white" transform="translate(0 2)"/>
</clipPath>
</defs>
</svg>
