<svg width="203" height="49" viewBox="0 0 203 49" fill="none" xmlns="http://www.w3.org/2000/svg">
<path d="M31.1151 37.448C30.0698 37.448 29.1418 37.224 28.3311 36.776C27.5418 36.3067 26.9231 35.6667 26.4751 34.856C26.0485 34.0453 25.8351 33.128 25.8351 32.104C25.8351 30.2053 26.6565 28.7333 28.2991 27.688C29.9418 26.6213 32.5551 25.896 36.1391 25.512C36.1178 24.9147 36.0111 24.392 35.8191 23.944C35.6271 23.4747 35.3071 23.1013 34.8591 22.824C34.4325 22.5467 33.8458 22.408 33.0991 22.408C32.2671 22.408 31.4458 22.568 30.6351 22.888C29.8245 23.208 29.0031 23.624 28.1711 24.136L26.5071 21C27.2111 20.552 27.9578 20.1573 28.7471 19.816C29.5365 19.4747 30.3685 19.1973 31.2431 18.984C32.1178 18.7493 33.0245 18.632 33.9631 18.632C35.4778 18.632 36.7471 18.9307 37.7711 19.528C38.7951 20.1253 39.5631 21.0107 40.0751 22.184C40.5871 23.3573 40.8431 24.808 40.8431 26.536V37H37.0031L36.6831 35.08H36.5231C35.7551 35.7627 34.9231 36.328 34.0271 36.776C33.1311 37.224 32.1605 37.448 31.1151 37.448ZM32.6831 33.768C33.3445 33.768 33.9418 33.6187 34.4751 33.32C35.0298 33 35.5845 32.5627 36.1391 32.008V28.424C34.6885 28.5947 33.5365 28.84 32.6831 29.16C31.8298 29.48 31.2218 29.864 30.8591 30.312C30.4965 30.7387 30.3151 31.2187 30.3151 31.752C30.3151 32.456 30.5285 32.968 30.9551 33.288C31.4031 33.608 31.9791 33.768 32.6831 33.768ZM46.4374 37V17.64C46.4374 16.4027 46.64 15.2827 47.0454 14.28C47.472 13.2773 48.1334 12.488 49.0294 11.912C49.9467 11.3147 51.152 11.016 52.6454 11.016C53.3707 11.016 54.0214 11.08 54.5974 11.208C55.1734 11.336 55.664 11.4747 56.0694 11.624L55.2054 15.144C54.608 14.8667 53.968 14.728 53.2854 14.728C52.6027 14.728 52.0694 14.952 51.6854 15.4C51.3014 15.848 51.1094 16.5627 51.1094 17.544V37H46.4374ZM44.0054 22.792V19.304L46.6934 19.08H54.5334V22.792H44.0054ZM64.8204 37.448C63.1564 37.448 61.6524 37.0747 60.3084 36.328C58.9644 35.5813 57.887 34.504 57.0764 33.096C56.287 31.688 55.8924 30.0027 55.8924 28.04C55.8924 26.5893 56.1164 25.288 56.5644 24.136C57.0337 22.984 57.663 22.0027 58.4524 21.192C59.263 20.36 60.159 19.7307 61.1404 19.304C62.143 18.856 63.1777 18.632 64.2444 18.632C65.887 18.632 67.263 19.0053 68.3724 19.752C69.4817 20.4773 70.3137 21.4907 70.8684 22.792C71.4444 24.072 71.7324 25.544 71.7324 27.208C71.7324 27.6347 71.711 28.0507 71.6684 28.456C71.6257 28.84 71.5724 29.1493 71.5084 29.384H60.4684C60.5964 30.344 60.8844 31.1547 61.3324 31.816C61.7804 32.4773 62.3564 32.9787 63.0604 33.32C63.7644 33.64 64.5644 33.8 65.4604 33.8C66.1857 33.8 66.8684 33.704 67.5084 33.512C68.1484 33.2987 68.799 32.9893 69.4604 32.584L71.0604 35.464C70.1857 36.0613 69.2044 36.5413 68.1164 36.904C67.0284 37.2667 65.9297 37.448 64.8204 37.448ZM60.3724 26.216H67.7004C67.7004 25.0213 67.423 24.072 66.8684 23.368C66.335 22.6427 65.4817 22.28 64.3084 22.28C63.6897 22.28 63.103 22.4293 62.5484 22.728C61.9937 23.0053 61.5244 23.4427 61.1404 24.04C60.7564 24.616 60.5004 25.3413 60.3724 26.216ZM108.99 37.448C107.945 37.448 107.017 37.224 106.206 36.776C105.417 36.3067 104.798 35.6667 104.35 34.856C103.923 34.0453 103.71 33.128 103.71 32.104C103.71 30.2053 104.531 28.7333 106.174 27.688C107.817 26.6213 110.43 25.896 114.014 25.512C113.993 24.9147 113.886 24.392 113.694 23.944C113.502 23.4747 113.182 23.1013 112.734 22.824C112.307 22.5467 111.721 22.408 110.974 22.408C110.142 22.408 109.321 22.568 108.51 22.888C107.699 23.208 106.878 23.624 106.046 24.136L104.382 21C105.086 20.552 105.833 20.1573 106.622 19.816C107.411 19.4747 108.243 19.1973 109.118 18.984C109.993 18.7493 110.899 18.632 111.838 18.632C113.353 18.632 114.622 18.9307 115.646 19.528C116.67 20.1253 117.438 21.0107 117.95 22.184C118.462 23.3573 118.718 24.808 118.718 26.536V37H114.878L114.558 35.08H114.398C113.63 35.7627 112.798 36.328 111.902 36.776C111.006 37.224 110.035 37.448 108.99 37.448ZM110.558 33.768C111.219 33.768 111.817 33.6187 112.35 33.32C112.905 33 113.459 32.5627 114.014 32.008V28.424C112.563 28.5947 111.411 28.84 110.558 29.16C109.705 29.48 109.097 29.864 108.734 30.312C108.371 30.7387 108.19 31.2187 108.19 31.752C108.19 32.456 108.403 32.968 108.83 33.288C109.278 33.608 109.854 33.768 110.558 33.768ZM129.291 37.448C127.883 37.448 126.742 37.1707 125.867 36.616C124.992 36.04 124.363 35.2507 123.979 34.248C123.595 33.2453 123.403 32.0827 123.403 30.76V22.792H120.875V19.304L123.659 19.08L124.203 14.248H128.075V19.08H132.523V22.792H128.075V30.728C128.075 31.752 128.288 32.5093 128.715 33C129.142 33.4907 129.75 33.736 130.539 33.736C130.838 33.736 131.147 33.6933 131.467 33.608C131.787 33.5227 132.064 33.4373 132.299 33.352L133.099 36.776C132.608 36.9253 132.043 37.0747 131.403 37.224C130.784 37.3733 130.08 37.448 129.291 37.448ZM143.035 37.448C141.392 37.448 139.909 37.0747 138.587 36.328C137.264 35.5813 136.219 34.5147 135.451 33.128C134.683 31.72 134.299 30.024 134.299 28.04C134.299 26.056 134.715 24.3707 135.547 22.984C136.4 21.576 137.52 20.4987 138.907 19.752C140.315 19.0053 141.829 18.632 143.451 18.632C144.56 18.632 145.541 18.824 146.395 19.208C147.248 19.5707 148.005 20.0507 148.667 20.648L146.427 23.624C146 23.24 145.563 22.952 145.115 22.76C144.667 22.568 144.197 22.472 143.707 22.472C142.789 22.472 141.979 22.7067 141.275 23.176C140.592 23.624 140.059 24.264 139.675 25.096C139.312 25.928 139.131 26.9093 139.131 28.04C139.131 29.1707 139.312 30.152 139.675 30.984C140.059 31.816 140.581 32.4667 141.243 32.936C141.925 33.384 142.693 33.608 143.547 33.608C144.187 33.608 144.805 33.4693 145.403 33.192C146 32.9147 146.544 32.5733 147.035 32.168L148.891 35.272C148.037 36.0187 147.088 36.5733 146.043 36.936C145.019 37.2773 144.016 37.448 143.035 37.448ZM152.294 37V11.464H156.998V17.896L156.774 21.256C157.478 20.5733 158.288 19.9653 159.206 19.432C160.123 18.8987 161.19 18.632 162.406 18.632C164.347 18.632 165.755 19.272 166.63 20.552C167.504 21.8107 167.942 23.5707 167.942 25.832V37H163.238V26.408C163.238 25.0213 163.035 24.0507 162.63 23.496C162.246 22.9413 161.606 22.664 160.71 22.664C159.984 22.664 159.344 22.8347 158.79 23.176C158.256 23.5173 157.659 24.0187 156.998 24.68V37H152.294ZM180.57 37.448C178.906 37.448 177.402 37.0747 176.058 36.328C174.714 35.5813 173.637 34.504 172.826 33.096C172.037 31.688 171.642 30.0027 171.642 28.04C171.642 26.5893 171.866 25.288 172.314 24.136C172.784 22.984 173.413 22.0027 174.202 21.192C175.013 20.36 175.909 19.7307 176.89 19.304C177.893 18.856 178.928 18.632 179.994 18.632C181.637 18.632 183.013 19.0053 184.122 19.752C185.232 20.4773 186.064 21.4907 186.618 22.792C187.194 24.072 187.482 25.544 187.482 27.208C187.482 27.6347 187.461 28.0507 187.418 28.456C187.376 28.84 187.322 29.1493 187.258 29.384H176.218C176.346 30.344 176.634 31.1547 177.082 31.816C177.53 32.4773 178.106 32.9787 178.81 33.32C179.514 33.64 180.314 33.8 181.21 33.8C181.936 33.8 182.618 33.704 183.258 33.512C183.898 33.2987 184.549 32.9893 185.21 32.584L186.81 35.464C185.936 36.0613 184.954 36.5413 183.866 36.904C182.778 37.2667 181.68 37.448 180.57 37.448ZM176.122 26.216H183.45C183.45 25.0213 183.173 24.072 182.618 23.368C182.085 22.6427 181.232 22.28 180.058 22.28C179.44 22.28 178.853 22.4293 178.298 22.728C177.744 23.0053 177.274 23.4427 176.89 24.04C176.506 24.616 176.25 25.3413 176.122 26.216ZM191.356 37V19.08H195.196L195.548 22.248H195.644C196.305 21.0747 197.084 20.1787 197.98 19.56C198.876 18.9413 199.793 18.632 200.732 18.632C201.244 18.632 201.649 18.6747 201.948 18.76C202.268 18.824 202.556 18.9093 202.812 19.016L202.044 23.08C201.703 22.9947 201.393 22.9307 201.116 22.888C200.86 22.824 200.529 22.792 200.124 22.792C199.441 22.792 198.716 23.0587 197.948 23.592C197.201 24.1253 196.572 25.032 196.06 26.312V37H191.356Z" fill="black"/>
<mask id="mask0_1031_17104" style="mask-type:alpha" maskUnits="userSpaceOnUse" x="0" y="11" width="28" height="28">
<path d="M15.1667 27.3333L0.816666 29.6667C1.47898 31.5358 2.53081 33.2429 3.90249 34.6749C5.27418 36.1069 6.93444 37.2312 8.77333 37.9733L8.51666 37.8333L15.1667 27.3333ZM27.1833 20.3333C26.5334 18.4885 25.5041 16.8003 24.1618 15.3776C22.8195 13.955 21.1939 12.8293 19.39 12.0733L14 22.6667L27.1833 20.3333ZM10.7567 38.6033C11.8067 38.86 12.88 39 14 39C17.1267 39 19.9966 37.95 22.33 36.2233L17.1033 25L10.7567 38.6033ZM3.61666 15.6433C1.29098 18.2049 0.00176299 21.5402 0 25C0 25.7933 0.0933336 26.5633 0.21 27.3333H12.8333L3.61666 15.6433ZM24.1266 34.6367C26.618 32.0479 28.0067 28.5928 28 25C28 24.2067 27.9066 23.4367 27.79 22.6667H16.3333L24.1266 34.6367ZM17.1033 11.35C16.1 11.14 15.0733 11 14 11C10.7333 11 7.72333 12.1433 5.34333 14.01L11.6667 25L17.1033 11.35Z" fill="black"/>
</mask>
<g mask="url(#mask0_1031_17104)">
<mask id="path-3-outside-1_1031_17104" maskUnits="userSpaceOnUse" x="3" y="10" width="22" height="30" fill="black">
<rect fill="white" x="3" y="10" width="22" height="30"/>
<path d="M13.9996 37.448C12.421 37.448 10.8743 37.1493 9.35963 36.552C7.84496 35.9547 6.51163 35.1013 5.35963 33.992L8.07963 30.728C8.91163 31.5173 9.86096 32.1573 10.9276 32.648C12.0156 33.1173 13.0716 33.352 14.0956 33.352C15.333 33.352 16.2716 33.1067 16.9116 32.616C17.5516 32.1253 17.8716 31.464 17.8716 30.632C17.8716 30.0347 17.7116 29.5653 17.3916 29.224C17.093 28.8613 16.677 28.5413 16.1436 28.264C15.6103 27.9867 14.9916 27.7093 14.2876 27.432L11.1516 26.056C10.3623 25.736 9.59429 25.3093 8.84763 24.776C8.12229 24.2213 7.51429 23.528 7.02363 22.696C6.55429 21.864 6.31963 20.872 6.31963 19.72C6.31963 18.4187 6.67163 17.256 7.37563 16.232C8.07963 15.208 9.05029 14.3973 10.2876 13.8C11.525 13.1813 12.933 12.872 14.5116 12.872C15.9196 12.872 17.2743 13.1387 18.5756 13.672C19.877 14.2053 21.0076 14.9627 21.9676 15.944L19.5676 18.888C18.821 18.2693 18.0423 17.7893 17.2316 17.448C16.421 17.1067 15.5143 16.936 14.5116 16.936C13.4876 16.936 12.6663 17.16 12.0476 17.608C11.4503 18.0347 11.1516 18.6427 11.1516 19.432C11.1516 19.9867 11.3223 20.4453 11.6636 20.808C12.005 21.1707 12.453 21.4907 13.0076 21.768C13.5623 22.024 14.1703 22.2907 14.8316 22.568L17.9356 23.816C18.8956 24.2 19.7276 24.68 20.4316 25.256C21.157 25.832 21.7116 26.5253 22.0956 27.336C22.501 28.1467 22.7036 29.128 22.7036 30.28C22.7036 31.56 22.3516 32.744 21.6476 33.832C20.965 34.92 19.973 35.7947 18.6716 36.456C17.3916 37.1173 15.8343 37.448 13.9996 37.448Z"/>
</mask>
<path d="M13.9996 37.448C12.421 37.448 10.8743 37.1493 9.35963 36.552C7.84496 35.9547 6.51163 35.1013 5.35963 33.992L8.07963 30.728C8.91163 31.5173 9.86096 32.1573 10.9276 32.648C12.0156 33.1173 13.0716 33.352 14.0956 33.352C15.333 33.352 16.2716 33.1067 16.9116 32.616C17.5516 32.1253 17.8716 31.464 17.8716 30.632C17.8716 30.0347 17.7116 29.5653 17.3916 29.224C17.093 28.8613 16.677 28.5413 16.1436 28.264C15.6103 27.9867 14.9916 27.7093 14.2876 27.432L11.1516 26.056C10.3623 25.736 9.59429 25.3093 8.84763 24.776C8.12229 24.2213 7.51429 23.528 7.02363 22.696C6.55429 21.864 6.31963 20.872 6.31963 19.72C6.31963 18.4187 6.67163 17.256 7.37563 16.232C8.07963 15.208 9.05029 14.3973 10.2876 13.8C11.525 13.1813 12.933 12.872 14.5116 12.872C15.9196 12.872 17.2743 13.1387 18.5756 13.672C19.877 14.2053 21.0076 14.9627 21.9676 15.944L19.5676 18.888C18.821 18.2693 18.0423 17.7893 17.2316 17.448C16.421 17.1067 15.5143 16.936 14.5116 16.936C13.4876 16.936 12.6663 17.16 12.0476 17.608C11.4503 18.0347 11.1516 18.6427 11.1516 19.432C11.1516 19.9867 11.3223 20.4453 11.6636 20.808C12.005 21.1707 12.453 21.4907 13.0076 21.768C13.5623 22.024 14.1703 22.2907 14.8316 22.568L17.9356 23.816C18.8956 24.2 19.7276 24.68 20.4316 25.256C21.157 25.832 21.7116 26.5253 22.0956 27.336C22.501 28.1467 22.7036 29.128 22.7036 30.28C22.7036 31.56 22.3516 32.744 21.6476 33.832C20.965 34.92 19.973 35.7947 18.6716 36.456C17.3916 37.1173 15.8343 37.448 13.9996 37.448Z" fill="black"/>
<path d="M9.35963 36.552L10.0934 34.6915L10.0934 34.6915L9.35963 36.552ZM5.35963 33.992L3.82318 32.7116C3.15169 33.5174 3.2168 34.7051 3.97234 35.4326L5.35963 33.992ZM8.07963 30.728L9.45615 29.2771C9.05513 28.8966 8.51454 28.6991 7.96272 28.7314C7.4109 28.7637 6.89706 29.023 6.54318 29.4476L8.07963 30.728ZM10.9276 32.648L10.0918 34.465C10.1063 34.4716 10.1208 34.4781 10.1354 34.4844L10.9276 32.648ZM16.9116 32.616L15.6948 31.0288L16.9116 32.616ZM17.3916 29.224L15.8478 30.4954C15.875 30.5285 15.9033 30.5606 15.9326 30.5919L17.3916 29.224ZM16.1436 28.264L15.2209 30.0384L15.2209 30.0384L16.1436 28.264ZM14.2876 27.432L13.484 29.2635C13.5074 29.2737 13.5309 29.2835 13.5546 29.2928L14.2876 27.432ZM11.1516 26.056L11.9552 24.2245C11.9379 24.217 11.9205 24.2096 11.903 24.2025L11.1516 26.056ZM8.84763 24.776L7.63273 26.3647C7.64999 26.3779 7.66746 26.3908 7.68515 26.4035L8.84763 24.776ZM7.02363 22.696L5.28167 23.6786C5.28797 23.6898 5.29438 23.7009 5.30089 23.712L7.02363 22.696ZM7.37563 16.232L5.72754 15.0989L5.72754 15.0989L7.37563 16.232ZM10.2876 13.8L11.1571 15.6011C11.1655 15.5971 11.1738 15.593 11.1821 15.5889L10.2876 13.8ZM18.5756 13.672L17.8172 15.5226L17.8172 15.5226L18.5756 13.672ZM21.9676 15.944L23.5178 17.2077C24.1609 16.4189 24.109 15.2729 23.3973 14.5454L21.9676 15.944ZM19.5676 18.888L18.2916 20.428C18.7022 20.7682 19.2316 20.9304 19.7622 20.8785C20.2929 20.8266 20.7809 20.565 21.1178 20.1517L19.5676 18.888ZM17.2316 17.448L16.4555 19.2913L16.4555 19.2913L17.2316 17.448ZM12.0476 17.608L13.2101 19.2355L13.2206 19.2279L12.0476 17.608ZM11.6636 20.808L13.12 19.4373L13.12 19.4373L11.6636 20.808ZM13.0076 21.768L12.1132 23.5569C12.1318 23.5662 12.1506 23.5752 12.1695 23.5839L13.0076 21.768ZM14.8316 22.568L14.0582 24.4124C14.0673 24.4162 14.0764 24.42 14.0855 24.4236L14.8316 22.568ZM17.9356 23.816L17.1895 25.6716L17.1928 25.673L17.9356 23.816ZM20.4316 25.256L19.1651 26.8039C19.1727 26.8101 19.1802 26.8162 19.1879 26.8222L20.4316 25.256ZM22.0956 27.336L20.2881 28.1922C20.2942 28.205 20.3004 28.2177 20.3068 28.2304L22.0956 27.336ZM21.6476 33.832L19.9685 32.7455C19.9634 32.7533 19.9584 32.7611 19.9535 32.769L21.6476 33.832ZM18.6716 36.456L17.7655 34.673L17.7536 34.6791L18.6716 36.456ZM13.9996 35.448C12.68 35.448 11.3818 35.1996 10.0934 34.6915L8.62589 38.4125C10.3667 39.0991 12.1619 39.448 13.9996 39.448V35.448ZM10.0934 34.6915C8.81739 34.1883 7.70714 33.476 6.74691 32.5514L3.97234 35.4326C5.31611 36.7266 6.87253 37.7211 8.62589 38.4125L10.0934 34.6915ZM6.89607 35.2724L9.61607 32.0084L6.54318 29.4476L3.82318 32.7116L6.89607 35.2724ZM6.7031 32.1789C7.69786 33.1227 8.83087 33.8849 10.0918 34.465L11.7634 30.831C10.891 30.4297 10.1254 29.912 9.45615 29.2771L6.7031 32.1789ZM10.1354 34.4844C11.4346 35.0449 12.7597 35.352 14.0956 35.352V31.352C13.3835 31.352 12.5966 31.1898 11.7198 30.8116L10.1354 34.4844ZM14.0956 35.352C15.5509 35.352 16.9967 35.0709 18.1285 34.2032L15.6948 31.0288C15.5466 31.1424 15.115 31.352 14.0956 31.352V35.352ZM18.1285 34.2032C19.2802 33.3202 19.8716 32.063 19.8716 30.632H15.8716C15.8716 30.7864 15.8435 30.8558 15.8313 30.8809C15.8201 30.904 15.7917 30.9545 15.6948 31.0288L18.1285 34.2032ZM19.8716 30.632C19.8716 29.6726 19.6067 28.6625 18.8507 27.8561L15.9326 30.5919C15.9121 30.5701 15.8945 30.5463 15.8807 30.523C15.8671 30.5 15.8606 30.4833 15.8586 30.4773C15.855 30.4667 15.8716 30.5093 15.8716 30.632H19.8716ZM18.9355 27.9526C18.4251 27.3329 17.7744 26.8578 17.0663 26.4896L15.2209 30.0384C15.5795 30.2249 15.7608 30.3898 15.8478 30.4954L18.9355 27.9526ZM17.0663 26.4896C16.458 26.1732 15.7737 25.8678 15.0207 25.5712L13.5546 29.2928C14.2096 29.5509 14.7626 29.8001 15.2209 30.0384L17.0663 26.4896ZM15.0912 25.6005L11.9552 24.2245L10.348 27.8875L13.484 29.2635L15.0912 25.6005ZM11.903 24.2025C11.2698 23.9458 10.6389 23.5977 10.0101 23.1485L7.68515 26.4035C8.54972 27.021 9.45473 27.5262 10.4002 27.9095L11.903 24.2025ZM10.0625 23.1873C9.55342 22.798 9.11387 22.3032 8.74636 21.68L5.30089 23.712C5.91472 24.7528 6.69116 25.6447 7.63273 26.3647L10.0625 23.1873ZM8.76558 21.7134C8.49706 21.2373 8.31963 20.5984 8.31963 19.72H4.31963C4.31963 21.1456 4.61152 22.4907 5.28167 23.6786L8.76558 21.7134ZM8.31963 19.72C8.31963 18.803 8.56012 18.0394 9.02371 17.3651L5.72754 15.0989C4.78313 16.4726 4.31963 18.0343 4.31963 19.72H8.31963ZM9.02371 17.3651C9.51039 16.6572 10.1991 16.0636 11.1571 15.6011L9.41813 11.9989C7.90151 12.7311 6.64886 13.7588 5.72754 15.0989L9.02371 17.3651ZM11.1821 15.5889C12.1048 15.1275 13.1994 14.872 14.5116 14.872V10.872C12.6665 10.872 10.9451 11.2352 9.3932 12.0111L11.1821 15.5889ZM14.5116 14.872C15.6598 14.872 16.7568 15.088 17.8172 15.5226L19.3341 11.8214C17.7918 11.1893 16.1794 10.872 14.5116 10.872V14.872ZM17.8172 15.5226C18.8726 15.9552 19.7733 16.5609 20.538 17.3426L23.3973 14.5454C22.242 13.3644 20.8813 12.4555 19.3341 11.8214L17.8172 15.5226ZM20.4175 14.6803L18.0175 17.6243L21.1178 20.1517L23.5178 17.2077L20.4175 14.6803ZM20.8437 17.348C19.9614 16.6169 19.0164 16.0294 18.0077 15.6047L16.4555 19.2913C17.0681 19.5492 17.6805 19.9217 18.2916 20.428L20.8437 17.348ZM18.0077 15.6047C16.9194 15.1465 15.7438 14.936 14.5116 14.936V18.936C15.2848 18.936 15.9225 19.0669 16.4555 19.2913L18.0077 15.6047ZM14.5116 14.936C13.208 14.936 11.9336 15.2212 10.8746 15.9881L13.2206 19.2279C13.3989 19.0988 13.7673 18.936 14.5116 18.936V14.936ZM10.8852 15.9805C9.71749 16.8146 9.15163 18.0538 9.15163 19.432H13.1516C13.1516 19.2927 13.1768 19.2535 13.1707 19.2658C13.1689 19.2694 13.1667 19.2722 13.1675 19.2713C13.1688 19.2698 13.1801 19.2569 13.2101 19.2355L10.8852 15.9805ZM9.15163 19.432C9.15163 20.4333 9.47591 21.4017 10.2072 22.1787L13.12 19.4373C13.1224 19.4398 13.1291 19.4475 13.1369 19.46C13.1447 19.4725 13.1504 19.4848 13.1541 19.4945C13.1576 19.504 13.1572 19.5061 13.1558 19.4978C13.1544 19.4892 13.1516 19.4681 13.1516 19.432H9.15163ZM10.2072 22.1787C10.7439 22.749 11.3977 23.1991 12.1132 23.5569L13.9021 19.9791C13.5082 19.7822 13.266 19.5924 13.12 19.4373L10.2072 22.1787ZM12.1695 23.5839C12.7488 23.8513 13.3787 24.1275 14.0582 24.4124L15.6051 20.7236C14.9618 20.4539 14.3757 20.1967 13.8457 19.9521L12.1695 23.5839ZM14.0855 24.4236L17.1895 25.6716L18.6817 21.9604L15.5777 20.7124L14.0855 24.4236ZM17.1928 25.673C17.989 25.9914 18.6388 26.3733 19.1651 26.8039L21.6981 23.7081C20.8164 22.9867 19.8023 22.4086 18.6784 21.959L17.1928 25.673ZM19.1879 26.8222C19.6815 27.2142 20.0396 27.6674 20.2881 28.1922L23.9031 26.4798C23.3837 25.3833 22.6324 24.4498 21.6754 23.6898L19.1879 26.8222ZM20.3068 28.2304C20.5408 28.6985 20.7036 29.3567 20.7036 30.28H24.7036C24.7036 28.8993 24.4611 27.5948 23.8845 26.4416L20.3068 28.2304ZM20.7036 30.28C20.7036 31.1694 20.4658 31.9769 19.9685 32.7455L23.3268 34.9185C24.2374 33.5111 24.7036 31.9506 24.7036 30.28H20.7036ZM19.9535 32.769C19.4886 33.5099 18.7888 34.153 17.7655 34.673L19.5777 38.239C21.1571 37.4363 22.4413 36.3301 23.3418 34.895L19.9535 32.769ZM17.7536 34.6791C16.8243 35.1593 15.5999 35.448 13.9996 35.448V39.448C16.0687 39.448 17.9589 39.0754 19.5897 38.2329L17.7536 34.6791Z" fill="black" mask="url(#path-3-outside-1_1031_17104)"/>
</g>
<mask id="mask1_1031_17104" style="mask-type:alpha" maskUnits="userSpaceOnUse" x="77" y="10" width="28" height="28">
<path d="M92.1667 26.3333L77.8167 28.6667C78.479 30.5358 79.5308 32.2429 80.9025 33.6749C82.2742 35.1069 83.9344 36.2312 85.7733 36.9733L85.5167 36.8333L92.1667 26.3333ZM104.183 19.3333C103.533 17.4885 102.504 15.8003 101.162 14.3776C99.8195 12.955 98.1939 11.8293 96.39 11.0733L91 21.6667L104.183 19.3333ZM87.7567 37.6033C88.8067 37.86 89.88 38 91 38C94.1267 38 96.9966 36.95 99.33 35.2233L94.1033 24L87.7567 37.6033ZM80.6167 14.6433C78.291 17.2049 77.0018 20.5402 77 24C77 24.7933 77.0933 25.5633 77.21 26.3333H89.8333L80.6167 14.6433ZM101.127 33.6367C103.618 31.0479 105.007 27.5928 105 24C105 23.2067 104.907 22.4367 104.79 21.6667H93.3333L101.127 33.6367ZM94.1033 10.35C93.1 10.14 92.0733 10 91 10C87.7333 10 84.7233 11.1433 82.3433 13.01L88.6667 24L94.1033 10.35Z" fill="black"/>
</mask>
<g mask="url(#mask1_1031_17104)">
<mask id="path-6-outside-2_1031_17104" maskUnits="userSpaceOnUse" x="80" y="9" width="24" height="30" fill="black">
<rect fill="white" x="80" y="9" width="24" height="30"/>
<path d="M93.544 36.448C92.0507 36.448 90.6533 36.192 89.352 35.68C88.0507 35.1467 86.8987 34.3573 85.896 33.312C84.9147 32.2667 84.136 30.9867 83.56 29.472C83.0053 27.9573 82.728 26.2187 82.728 24.256C82.728 22.2933 83.016 20.5547 83.592 19.04C84.168 17.504 84.9573 16.2027 85.96 15.136C86.984 14.0693 88.1573 13.2587 89.48 12.704C90.824 12.1493 92.2427 11.872 93.736 11.872C95.2507 11.872 96.5947 12.1813 97.768 12.8C98.9627 13.3973 99.9333 14.1013 100.68 14.912L98.216 17.92C97.6187 17.3227 96.9573 16.8427 96.232 16.48C95.528 16.1173 94.728 15.936 93.832 15.936C92.6373 15.936 91.56 16.2667 90.6 16.928C89.6613 17.568 88.9253 18.496 88.392 19.712C87.8587 20.928 87.592 22.3893 87.592 24.096C87.592 25.824 87.8373 27.3067 88.328 28.544C88.84 29.76 89.5547 30.6987 90.472 31.36C91.4107 32.0213 92.4987 32.352 93.736 32.352C94.76 32.352 95.6667 32.1387 96.456 31.712C97.2667 31.264 97.9813 30.6987 98.6 30.016L101.128 32.96C100.147 34.112 99.0267 34.9867 97.768 35.584C96.5093 36.16 95.1013 36.448 93.544 36.448Z"/>
</mask>
<path d="M93.544 36.448C92.0507 36.448 90.6533 36.192 89.352 35.68C88.0507 35.1467 86.8987 34.3573 85.896 33.312C84.9147 32.2667 84.136 30.9867 83.56 29.472C83.0053 27.9573 82.728 26.2187 82.728 24.256C82.728 22.2933 83.016 20.5547 83.592 19.04C84.168 17.504 84.9573 16.2027 85.96 15.136C86.984 14.0693 88.1573 13.2587 89.48 12.704C90.824 12.1493 92.2427 11.872 93.736 11.872C95.2507 11.872 96.5947 12.1813 97.768 12.8C98.9627 13.3973 99.9333 14.1013 100.68 14.912L98.216 17.92C97.6187 17.3227 96.9573 16.8427 96.232 16.48C95.528 16.1173 94.728 15.936 93.832 15.936C92.6373 15.936 91.56 16.2667 90.6 16.928C89.6613 17.568 88.9253 18.496 88.392 19.712C87.8587 20.928 87.592 22.3893 87.592 24.096C87.592 25.824 87.8373 27.3067 88.328 28.544C88.84 29.76 89.5547 30.6987 90.472 31.36C91.4107 32.0213 92.4987 32.352 93.736 32.352C94.76 32.352 95.6667 32.1387 96.456 31.712C97.2667 31.264 97.9813 30.6987 98.6 30.016L101.128 32.96C100.147 34.112 99.0267 34.9867 97.768 35.584C96.5093 36.16 95.1013 36.448 93.544 36.448Z" fill="black"/>
<path d="M89.352 35.68L88.5936 37.5306C88.6023 37.5342 88.611 37.5377 88.6198 37.5411L89.352 35.68ZM85.896 33.312L84.4379 34.6809C84.4428 34.6861 84.4477 34.6913 84.4526 34.6964L85.896 33.312ZM83.56 29.472L81.682 30.1597C81.6848 30.1675 81.6877 30.1752 81.6906 30.1829L83.56 29.472ZM83.592 19.04L85.4614 19.7509L85.4647 19.7422L83.592 19.04ZM85.96 15.136L84.5172 13.7509C84.5124 13.756 84.5075 13.7611 84.5027 13.7662L85.96 15.136ZM89.48 12.704L88.717 10.8552L88.7065 10.8596L89.48 12.704ZM97.768 12.8L96.8352 14.5691C96.8479 14.5758 96.8607 14.5824 96.8736 14.5889L97.768 12.8ZM100.68 14.912L102.227 16.1794C102.859 15.4084 102.826 14.2901 102.151 13.557L100.68 14.912ZM98.216 17.92L96.8018 19.3342C97.2012 19.7336 97.7509 19.9455 98.315 19.9175C98.8792 19.8896 99.4052 19.6243 99.7632 19.1874L98.216 17.92ZM96.232 16.48L95.3161 18.2579C95.3232 18.2616 95.3304 18.2653 95.3376 18.2689L96.232 16.48ZM90.6 16.928L91.7267 18.5805L91.7346 18.575L90.6 16.928ZM88.392 19.712L90.2236 20.5153L90.2236 20.5153L88.392 19.712ZM88.328 28.544L86.4688 29.2813C86.474 29.2943 86.4793 29.3072 86.4847 29.3201L88.328 28.544ZM90.472 31.36L89.3024 32.9824C89.3083 32.9866 89.3142 32.9908 89.3201 32.995L90.472 31.36ZM96.456 31.712L97.407 33.4714C97.4125 33.4685 97.4179 33.4655 97.4234 33.4625L96.456 31.712ZM98.6 30.016L100.117 28.7131C99.7435 28.2777 99.2006 28.0239 98.6267 28.0162C98.0529 28.0085 97.5034 28.2477 97.118 28.673L98.6 30.016ZM101.128 32.96L102.65 34.2569C103.289 33.5072 103.287 32.4042 102.645 31.6571L101.128 32.96ZM97.768 35.584L98.6002 37.4026C98.6087 37.3988 98.6171 37.3948 98.6255 37.3909L97.768 35.584ZM93.544 34.448C92.2841 34.448 91.1369 34.233 90.0842 33.8189L88.6198 37.5411C90.1698 38.151 91.8172 38.448 93.544 38.448V34.448ZM90.1104 33.8294C89.0753 33.4051 88.1547 32.7776 87.3394 31.9275L84.4526 34.6964C85.6426 35.9371 87.0261 36.8882 88.5936 37.5306L90.1104 33.8294ZM87.3541 31.9431C86.5733 31.1114 85.9246 30.0634 85.4294 28.7611L81.6906 30.1829C82.3474 31.91 83.256 33.4219 84.4379 34.6809L87.3541 31.9431ZM85.438 28.7843C84.9794 27.5319 84.728 26.0333 84.728 24.256H80.728C80.728 26.404 81.0313 28.3828 81.682 30.1597L85.438 28.7843ZM84.728 24.256C84.728 22.4864 84.9878 20.9962 85.4614 19.7509L81.7226 18.3291C81.0442 20.1132 80.728 22.1002 80.728 24.256H84.728ZM85.4647 19.7422C85.9589 18.4242 86.6165 17.3577 87.4173 16.5058L84.5027 13.7662C83.2982 15.0476 82.3771 16.5838 81.7193 18.3378L85.4647 19.7422ZM87.4028 16.5211C88.2434 15.6454 89.1908 14.994 90.2535 14.5484L88.7065 10.8596C87.1239 11.5233 85.7246 12.4933 84.5172 13.7509L87.4028 16.5211ZM90.243 14.5527C91.3384 14.1007 92.4972 13.872 93.736 13.872V9.872C91.9881 9.872 90.3096 10.198 88.717 10.8553L90.243 14.5527ZM93.736 13.872C94.9721 13.872 95.9879 14.1224 96.8352 14.5691L98.7008 11.0309C97.2014 10.2403 95.5292 9.872 93.736 9.872V13.872ZM96.8736 14.5889C97.8959 15.1 98.6573 15.668 99.2089 16.2669L102.151 13.557C101.209 12.5346 100.029 11.6946 98.6624 11.0111L96.8736 14.5889ZM99.1328 13.6446L96.6688 16.6526L99.7632 19.1874L102.227 16.1794L99.1328 13.6446ZM99.6302 16.5058C98.8873 15.7628 98.052 15.1539 97.1264 14.6911L95.3376 18.2689C95.8627 18.5314 96.3501 18.8825 96.8018 19.3342L99.6302 16.5058ZM97.1479 14.7021C96.1253 14.1753 95.0044 13.936 93.832 13.936V17.936C94.4516 17.936 94.9307 18.0594 95.3161 18.2579L97.1479 14.7021ZM93.832 13.936C92.2428 13.936 90.7678 14.3838 89.4654 15.281L91.7346 18.575C92.3522 18.1496 93.0319 17.936 93.832 17.936V13.936ZM89.4733 15.2755C88.1755 16.1604 87.2186 17.4081 86.5604 18.9087L90.2236 20.5153C90.6321 19.5839 91.1472 18.9756 91.7267 18.5805L89.4733 15.2755ZM86.5604 18.9087C85.8892 20.4391 85.592 22.1885 85.592 24.096H89.592C89.592 22.5901 89.8282 21.4169 90.2236 20.5153L86.5604 18.9087ZM85.592 24.096C85.592 26.0048 85.8619 27.7508 86.4688 29.2813L90.1872 27.8067C89.8127 26.8626 89.592 25.6432 89.592 24.096H85.592ZM86.4847 29.3201C87.1152 30.8174 88.0404 32.0725 89.3024 32.9824L91.6416 29.7376C91.069 29.3248 90.5648 28.7026 90.1713 27.7679L86.4847 29.3201ZM89.3201 32.995C90.6225 33.9125 92.12 34.352 93.736 34.352V30.352C92.8774 30.352 92.1989 30.1301 91.6239 29.725L89.3201 32.995ZM93.736 34.352C95.0447 34.352 96.2865 34.0771 97.407 33.4714L95.505 29.9526C95.0468 30.2002 94.4753 30.352 93.736 30.352V34.352ZM97.4234 33.4625C98.4258 32.9085 99.3146 32.2058 100.082 31.359L97.118 28.673C96.6481 29.1915 96.1075 29.6195 95.4886 29.9615L97.4234 33.4625ZM97.0827 31.3189L99.6107 34.2629L102.645 31.6571L100.117 28.7131L97.0827 31.3189ZM99.6055 31.6631C98.7914 32.6188 97.8926 33.3111 96.9105 33.7771L98.6255 37.3909C100.161 36.6623 101.502 35.6052 102.65 34.2569L99.6055 31.6631ZM96.9358 33.7654C95.9692 34.2077 94.8501 34.448 93.544 34.448V38.448C95.3525 38.448 97.0495 38.1123 98.6002 37.4026L96.9358 33.7654Z" fill="black" mask="url(#path-6-outside-2_1031_17104)"/>
</g>
</svg>
